<?xml version="1.0" standalone="no"?>
<!DOCTYPE svg PUBLIC "-//W3C//DTD SVG 20010904//EN"
 "http://www.w3.org/TR/2001/REC-SVG-20010904/DTD/svg10.dtd">
<svg version="1.0" xmlns="http://www.w3.org/2000/svg"
 width="512.000000pt" height="328.000000pt" viewBox="0 0 512.000000 328.000000"
 preserveAspectRatio="xMidYMid meet">

<g transform="translate(0.000000,328.000000) scale(0.100000,-0.100000)"
fill="#000000" stroke="none">
<path d="M3406 3258 c3 -5 10 -6 15 -3 13 9 11 12 -6 12 -8 0 -12 -4 -9 -9z"/>
<path d="M177 2937 c4 -6 8 -16 8 -21 0 -5 5 -11 12 -13 17 -6 4 34 -14 41 -9
4 -11 2 -6 -7z"/>
<path d="M773 2918 c-25 -12 -41 -40 -17 -31 7 3 14 9 14 14 0 5 7 9 15 9 8 0
15 5 15 10 0 12 1 12 -27 -2z"/>
<path d="M828 2912 c-10 -2 -18 -8 -18 -13 0 -6 -5 -7 -12 -3 -7 4 -8 3 -4 -4
6 -11 -25 -34 -41 -31 -4 1 -15 0 -23 -4 -8 -3 -22 -8 -30 -11 -8 -4 -1 -4 17
-1 18 2 35 0 38 -5 3 -6 16 -1 28 11 13 11 23 15 25 9 3 -7 9 -7 19 2 14 11
15 10 9 -10 -5 -16 -3 -24 8 -28 9 -3 13 -10 10 -15 -3 -5 -10 -7 -15 -4 -5 4
-9 2 -9 -3 0 -15 13 -22 24 -12 7 5 17 5 26 0 15 -10 14 -10 -22 -14 -7 0 -18
-12 -25 -26 -11 -21 -10 -26 2 -28 9 -2 13 -8 9 -13 -4 -7 -10 -6 -18 0 -8 7
-17 6 -26 -1 -13 -9 -13 -9 0 -5 19 6 45 -19 27 -26 -7 -3 -2 -6 10 -6 12 -1
27 -10 33 -20 5 -11 18 -20 28 -20 9 0 24 -1 32 -2 36 -5 58 2 63 21 6 22 -18
29 -26 8 -3 -8 -6 -9 -6 -2 -1 6 -12 9 -25 7 -33 -7 -53 29 -37 65 13 26 9 38
-8 27 -6 -3 -9 -11 -6 -16 9 -14 -5 -11 -21 5 -12 13 -11 15 6 21 11 3 25 15
30 25 8 15 6 19 -13 23 -13 3 -8 5 16 6 20 0 37 6 37 11 0 6 -4 10 -10 10 -5
0 -10 7 -10 16 0 8 4 12 10 9 5 -3 7 0 4 8 -3 8 -13 14 -22 14 -45 0 -61 4
-64 16 -2 7 -11 11 -20 9z m77 -70 c-3 -3 -11 0 -18 7 -9 10 -8 11 6 5 10 -3
15 -9 12 -12z m-8 -177 c8 -22 -6 -33 -17 -15 -13 20 -12 30 0 30 6 0 13 -7
17 -15z"/>
<path d="M1002 2904 c-7 -8 -8 -14 -3 -14 10 0 25 19 20 25 -2 1 -10 -3 -17
-11z"/>
<path d="M182 2873 c-7 -10 -10 -12 -7 -5 9 18 -8 15 -26 -6 -17 -20 -7 -82
14 -82 8 0 7 -4 -3 -11 -12 -9 -12 -10 3 -5 10 3 21 6 23 6 2 0 4 6 4 14 0 18
33 14 38 -5 3 -11 1 -11 -8 1 -8 10 -10 11 -8 2 5 -20 23 -10 21 11 -2 10 1
16 6 13 5 -3 12 1 15 10 8 22 8 26 -4 19 -5 -3 -10 1 -10 9 0 10 -6 13 -15 10
-8 -4 -15 -1 -15 5 0 6 5 11 11 11 5 0 7 5 4 10 -9 15 -29 12 -43 -7z m18 -29
c0 -8 -19 -13 -24 -6 -3 5 1 9 9 9 8 0 15 -2 15 -3z"/>
<path d="M16 2864 c1 -6 -3 -17 -9 -24 -9 -9 -8 -11 7 -8 12 2 20 -4 22 -16 1
-10 8 -22 14 -26 9 -6 9 -9 -1 -13 -11 -4 -11 -6 -1 -6 7 -1 10 -6 7 -11 -4
-6 -3 -10 2 -9 20 4 27 -2 13 -12 -13 -9 -13 -10 2 -6 12 4 16 0 15 -13 -1
-10 -5 -16 -9 -14 -4 3 -16 0 -25 -5 -15 -9 -13 -10 12 -11 24 0 27 -2 15 -11
-11 -8 -6 -9 21 -6 34 5 37 3 42 -21 3 -15 1 -34 -4 -42 -7 -11 -8 -8 -3 10
l6 25 -24 -25 c-13 -14 -23 -28 -21 -32 2 -5 -3 -8 -12 -8 -12 0 -15 -6 -11
-22 3 -13 3 -17 0 -10 -7 14 -34 16 -34 2 0 -5 -4 -10 -10 -10 -5 0 -7 6 -4
13 2 7 -2 21 -9 31 -12 16 -14 -72 -16 -592 l-2 -611 23 -12 c13 -7 31 -14 40
-16 14 -2 16 1 8 21 -7 20 -5 25 10 29 10 3 21 -1 24 -9 3 -8 2 -13 -2 -11 -4
1 -8 -1 -9 -6 -7 -18 -2 -28 13 -25 10 2 19 -3 22 -11 3 -9 0 -11 -7 -6 -7 4
-23 4 -37 1 -20 -5 -24 -11 -18 -29 4 -12 11 -23 15 -25 16 -6 9 -21 -12 -27
-16 -6 -18 -9 -8 -15 22 -14 71 17 67 43 -2 14 3 23 16 25 11 3 16 0 12 -7 -4
-6 -2 -11 3 -11 6 0 11 -5 11 -11 0 -6 -7 -8 -16 -5 -12 5 -15 2 -10 -10 3 -8
6 -17 6 -20 0 -2 7 -1 15 2 8 4 15 3 15 -1 0 -10 -41 -68 -58 -83 -14 -11 -14
-12 2 -12 9 0 28 11 41 25 14 13 25 20 25 14 0 -6 5 -7 10 -4 7 4 6 13 -1 27
-7 13 -7 23 -2 27 6 3 10 13 11 21 2 36 9 66 19 85 11 19 12 19 19 2 4 -10 2
-23 -5 -30 -14 -14 -14 -30 0 -21 8 5 8 1 0 -14 -15 -28 -14 -37 3 -23 8 6 18
11 22 9 5 -1 19 3 30 10 12 6 39 13 60 15 22 3 31 2 21 0 -9 -2 -21 -13 -27
-23 -5 -10 -30 -26 -55 -35 -24 -10 -42 -21 -40 -26 3 -4 0 -11 -6 -15 -8 -4
-7 -9 2 -16 10 -7 7 -7 -8 -3 -17 5 -25 0 -36 -21 -12 -24 -12 -31 2 -56 9
-15 19 -28 24 -28 4 0 7 -9 7 -20 0 -11 5 -20 11 -20 5 0 7 5 3 12 -5 7 -3 8
5 3 8 -4 33 7 64 28 29 19 66 37 82 41 l30 6 -25 -18 c-13 -9 -31 -25 -39 -34
-9 -10 -20 -18 -25 -18 -5 0 -25 -10 -43 -22 -35 -25 -41 -45 -20 -79 10 -17
9 -23 -1 -26 -6 -3 -10 -9 -6 -14 3 -5 -3 -9 -13 -10 -15 0 -14 -2 5 -11 31
-15 29 -40 -3 -34 -26 5 -68 -25 -46 -32 6 -2 8 -9 5 -14 -4 -7 -2 -8 4 -4 6
4 9 13 6 20 -3 8 4 16 15 19 16 4 21 0 21 -13 0 -17 -26 -32 -60 -34 -8 -1
-15 -6 -15 -13 0 -6 -4 -15 -9 -20 -5 -5 -6 -3 -2 5 4 6 2 12 -4 12 -7 0 -9
-7 -6 -16 3 -9 6 -24 6 -34 0 -10 9 -22 20 -25 16 -5 19 -12 14 -28 -6 -20 -5
-20 14 3 20 23 21 23 22 5 0 -11 -9 -34 -20 -52 -14 -24 -15 -31 -5 -26 20 7
19 -2 -1 -22 -12 -12 -19 -13 -24 -5 -4 6 -13 -8 -20 -34 -15 -54 -46 -88 -60
-66 -8 13 -10 13 -11 0 -2 -23 2 -64 8 -73 7 -12 33 13 33 33 0 26 28 33 47
10 16 -18 39 -18 28 1 -9 14 7 11 25 -6 18 -16 19 -13 21 38 0 9 4 17 8 17 13
0 19 36 9 54 -5 9 -18 16 -28 16 -17 0 -18 3 -9 28 6 15 10 28 10 30 -5 14 5
21 39 27 22 4 39 10 37 13 -3 11 37 52 51 52 7 0 10 5 7 10 -4 6 -3 10 2 9 30
-5 54 3 51 17 -2 10 4 19 12 21 12 4 12 2 2 -5 -10 -7 -10 -11 3 -22 13 -11
13 -15 3 -21 -10 -7 -9 -9 5 -9 9 0 17 -5 17 -10 0 -6 15 -9 34 -7 19 2 40 0
48 -4 10 -7 10 -9 1 -9 -7 0 -13 -4 -13 -9 0 -5 10 -7 22 -3 15 4 19 2 13 -7
-6 -10 -3 -11 15 -1 20 11 21 10 11 -9 -14 -26 -14 -29 5 -33 18 -4 49 -81 34
-86 -15 -6 -12 -19 5 -19 8 0 15 4 15 9 0 4 7 8 16 8 11 0 15 6 11 19 -4 17
-2 18 14 8 20 -13 25 -27 10 -27 -6 0 -8 -10 -6 -22 5 -25 -22 -61 -38 -51 -6
4 -8 0 -4 -10 4 -11 2 -14 -9 -10 -10 4 -12 0 -8 -11 10 -27 -14 -18 -37 13
-20 28 -59 48 -59 32 0 -12 36 -42 42 -35 7 6 48 -44 48 -58 0 -6 -7 -8 -15
-4 -9 3 -15 0 -15 -10 0 -8 -4 -12 -10 -9 -5 3 -10 15 -10 26 0 22 -22 25 -39
6 -8 -11 -6 -18 9 -32 18 -17 19 -20 4 -36 -10 -11 -12 -19 -5 -24 11 -6 13
-5 15 17 0 7 9 14 20 16 13 3 16 0 11 -9 -5 -8 -4 -10 3 -5 7 4 12 14 12 22 0
8 4 13 9 10 12 -8 1 -53 -17 -68 -13 -11 -15 -10 -9 4 4 12 2 15 -9 11 -11 -4
-14 -13 -10 -29 7 -27 -11 -33 -33 -11 -10 10 -17 6 -37 -18 -23 -28 -24 -29
-24 -7 0 13 6 22 16 22 8 0 12 5 9 10 -3 6 -1 10 5 10 7 0 9 8 5 20 -4 12 -2
20 5 20 6 0 8 5 5 10 -9 14 -37 -8 -32 -24 5 -16 -18 -36 -42 -36 -12 0 -21
-4 -21 -10 0 -5 5 -10 11 -10 16 0 69 -59 58 -66 -5 -3 -9 -1 -9 4 0 5 -8 12
-17 16 -10 3 -25 9 -33 12 -8 4 -12 3 -7 -1 4 -5 1 -15 -6 -24 -8 -9 -17 -25
-21 -36 -6 -16 -5 -18 5 -7 15 14 43 17 35 3 -9 -13 20 -21 32 -9 8 8 10 4 6
-13 -2 -13 -2 -18 2 -11 3 7 15 17 27 24 19 10 20 9 9 -4 -18 -22 1 -32 30
-17 18 10 24 8 36 -7 13 -18 14 -18 10 1 -3 16 5 22 42 32 25 7 32 11 17 9
-17 -2 -31 2 -34 10 -4 11 -11 11 -40 -1 -43 -18 -51 -19 -35 -3 10 10 7 15
-10 25 l-23 12 22 1 c33 0 53 11 53 27 0 21 36 64 45 55 5 -4 5 -2 1 5 -3 6
-2 14 4 18 5 3 14 -5 19 -18 6 -14 14 -28 19 -31 12 -7 48 33 55 61 4 17 -1
24 -26 32 -30 11 -30 11 -11 33 10 12 13 18 7 14 -7 -4 -13 -2 -13 3 0 6 4 11
9 11 13 0 22 43 10 51 -6 3 -3 11 7 20 12 9 15 10 10 2 -4 -8 -1 -13 9 -13 10
0 14 5 9 12 -5 10 -4 10 5 2 9 -9 10 -17 2 -31 -6 -12 -6 -24 -1 -29 5 -5 10
-22 13 -39 3 -26 4 -24 6 9 1 46 18 38 22 -9 5 -68 1 -78 -28 -70 -23 5 -25 4
-14 -9 16 -19 48 -5 61 27 5 12 9 16 9 9 1 -9 6 -10 19 -3 10 5 47 8 82 6 l65
-4 -63 10 c-48 8 -62 14 -58 25 3 8 0 14 -6 14 -6 0 -8 3 -5 6 4 4 14 1 22 -6
12 -10 19 -10 27 -2 14 14 15 13 -47 39 -27 12 -51 27 -53 33 -7 19 58 1 95
-26 17 -13 37 -24 43 -24 6 0 8 -5 5 -10 -3 -6 3 -10 15 -10 12 0 19 4 16 9
-3 5 4 11 15 14 14 4 19 1 16 -7 -3 -7 1 -13 9 -13 8 0 14 5 14 10 0 5 7 4 15
-3 12 -10 15 -10 15 1 0 10 3 10 8 3 4 -7 48 -14 100 -17 50 -3 97 -9 102 -12
24 -15 6 -25 -43 -25 -41 0 -56 -5 -70 -21 -17 -19 -17 -22 -2 -39 11 -12 27
-17 49 -15 18 2 39 -1 47 -6 10 -6 10 -9 2 -9 -7 0 -13 -9 -13 -20 0 -12 -6
-20 -12 -19 -29 3 -49 -2 -43 -11 3 -6 -4 -10 -17 -11 l-23 0 23 -11 c42 -21
23 -30 -54 -26 -52 2 -78 8 -84 18 -5 8 -10 11 -10 5 0 -5 -7 1 -14 14 l-14
24 -6 -21 c-4 -12 -12 -22 -17 -22 -13 0 -11 24 3 38 9 9 9 12 -1 12 -7 0 -15
-9 -18 -20 -3 -12 -11 -19 -17 -17 -6 2 -17 -3 -24 -12 -12 -14 -13 -14 -8 1
3 12 0 18 -10 18 -8 0 -13 -4 -10 -9 3 -4 -28 -14 -69 -20 -42 -7 -73 -17 -70
-22 4 -5 1 -9 -4 -9 -6 0 -11 5 -11 10 0 6 -7 10 -15 10 -21 0 -8 -27 17 -33
12 -3 38 3 59 14 24 12 56 19 86 18 43 -1 45 -2 18 -9 -21 -6 1 -8 70 -9 110
-1 209 -11 200 -19 -3 -3 -33 -5 -68 -3 -40 1 -57 -2 -48 -8 9 -6 -5 -11 -48
-16 -33 -4 -63 -11 -66 -15 -5 -9 26 -23 41 -18 5 1 19 -2 32 -6 13 -4 28 -3
35 2 7 5 40 13 74 16 75 8 95 15 86 29 -3 5 -2 7 4 4 6 -4 18 0 28 7 18 13 59
10 51 -3 -3 -4 9 -6 25 -5 37 3 89 -16 89 -32 0 -9 22 -12 73 -12 93 1 114 -3
113 -20 -1 -8 4 -17 11 -19 7 -3 11 8 10 29 -2 31 0 32 37 35 22 2 62 -4 89
-13 28 -9 81 -20 120 -24 45 -5 79 -15 98 -29 15 -12 36 -21 46 -20 11 0 13 3
6 6 -23 9 -13 25 12 21 13 -3 22 -2 20 3 -3 4 -30 11 -60 14 -30 4 -55 11 -55
16 0 5 -19 9 -42 8 -24 -1 -60 1 -80 4 -43 7 -103 36 -75 37 9 0 17 6 17 13 0
8 4 7 10 -3 8 -13 10 -12 10 3 0 9 -7 17 -15 17 -8 0 -15 4 -15 8 0 4 48 13
108 20 59 6 128 14 155 18 31 4 52 2 62 -6 14 -12 16 -10 15 18 -1 12 74 18
93 7 14 -8 9 -11 -30 -17 l-48 -6 60 1 c33 0 68 -1 78 -1 27 -3 20 -20 -10
-25 l-28 -4 27 -2 c16 0 32 6 40 17 7 11 20 21 28 24 8 3 0 6 -18 5 -18 0 -35
3 -39 6 -3 4 7 7 23 8 16 0 38 2 49 4 11 2 52 9 90 15 39 7 90 18 115 26 37
11 42 11 27 0 -16 -12 -15 -14 8 -14 14 0 25 4 25 8 0 4 16 10 34 13 19 3 51
13 70 22 36 17 105 13 77 -4 -10 -6 -9 -10 4 -15 28 -10 38 -7 25 9 -10 12 -5
17 25 30 21 8 41 15 45 15 5 0 10 4 12 10 4 11 89 23 208 30 12 0 13 2 1 9
-20 13 2 23 63 28 37 3 47 1 36 -6 -8 -6 -10 -11 -5 -11 6 0 21 7 33 16 12 8
22 12 22 8 0 -3 8 0 17 7 11 10 14 10 9 2 -10 -18 2 -16 20 2 22 22 64 30 85
16 23 -14 32 -14 24 -1 -3 5 -1 10 4 10 6 0 11 -5 11 -11 0 -6 14 1 31 15 34
29 44 32 55 14 5 -7 2 -9 -7 -4 -8 4 0 -4 16 -18 52 -45 68 -31 79 67 5 37 12
57 21 57 8 0 12 -9 10 -22 -2 -13 -6 -38 -9 -56 -3 -19 -1 -30 4 -27 6 4 10
12 10 19 0 8 10 12 25 11 14 -2 28 1 31 6 3 6 15 7 26 3 14 -4 18 -2 14 5 -4
6 -2 11 3 11 6 0 11 -6 11 -12 0 -10 2 -10 9 0 13 21 61 43 61 29 0 -7 4 -6
10 3 6 10 4 20 -6 31 -7 8 -14 20 -14 25 0 5 5 2 10 -6 8 -12 10 -9 10 13 0
19 5 27 18 27 10 0 27 7 38 15 15 12 15 14 2 9 -13 -4 -16 0 -15 15 1 13 6 20
14 17 13 -6 17 5 13 39 -2 16 0 17 14 6 14 -12 16 -11 16 8 0 11 5 21 11 21 6
0 9 6 6 12 -3 9 6 13 23 14 25 1 27 -1 17 -17 -7 -11 -19 -19 -27 -19 -13 0
-13 -1 0 -10 8 -5 10 -10 4 -10 -7 0 -14 -7 -17 -14 -4 -10 -1 -13 9 -9 16 6
19 -13 3 -23 -8 -4 -7 -9 2 -15 20 -13 29 -11 23 5 -3 8 -1 17 4 20 15 9 42
-4 42 -21 0 -24 18 -5 25 27 4 17 11 27 16 24 6 -4 6 -11 -2 -20 -9 -11 -8
-14 4 -14 8 0 20 -6 26 -14 10 -11 7 -17 -11 -30 -17 -12 -18 -16 -6 -16 9 0
18 7 22 15 7 20 26 19 26 -1 0 -8 4 -12 10 -9 6 3 10 0 11 -7 0 -7 4 -4 8 7 6
14 9 3 14 -39 3 -32 13 -66 21 -75 9 -10 16 -22 16 -27 0 -5 -5 -2 -10 6 -8
13 -10 12 -10 -2 0 -12 -8 -18 -22 -19 -18 -1 -19 -2 -5 -6 9 -2 15 -10 11
-16 -3 -7 1 -5 8 3 7 8 22 20 33 26 11 6 21 21 23 33 4 25 17 28 26 4 3 -10 9
-25 12 -33 5 -12 4 -13 -4 -1 -6 8 -17 11 -26 8 -34 -13 -13 -26 55 -33 39 -4
72 -12 74 -18 2 -6 6 -28 10 -49 5 -33 4 -37 -15 -37 -11 0 -20 -4 -20 -9 0
-10 -44 -19 -125 -26 -27 -2 -52 -4 -55 -5 -3 0 2 -5 10 -10 25 -16 126 -12
144 5 11 11 21 13 33 7 25 -13 132 -22 138 -12 3 4 -3 6 -13 3 -10 -2 -25 3
-33 13 -8 10 -9 15 -3 11 6 -3 30 3 54 14 23 11 53 22 66 23 35 4 51 22 63 72
13 51 37 51 27 0 -17 -82 -16 -83 32 -97 41 -11 46 -11 60 7 12 16 14 16 9 2
-3 -10 -3 -19 1 -22 8 -5 64 6 94 19 11 4 18 1 21 -12 4 -16 5 -16 6 0 1 12
10 17 34 18 17 0 46 2 64 5 18 2 35 -1 38 -6 3 -6 -3 -10 -14 -10 -11 0 -22
-4 -25 -9 -3 -5 26 -12 65 -16 96 -10 96 -9 98 177 2 127 0 148 -14 149 -8 1
-21 2 -27 3 -7 1 -21 -10 -31 -24 -17 -23 -18 -24 -12 -2 5 16 2 22 -8 22 -9
0 -17 5 -19 11 -2 6 -14 2 -28 -10 -14 -11 -20 -20 -13 -21 6 0 14 6 16 13 4
9 6 9 6 0 2 -19 -16 -24 -43 -12 -27 13 -33 24 -16 34 14 8 13 42 -2 51 -6 4
-16 0 -23 -9 -15 -21 -29 -22 -21 -2 3 8 1 15 -4 15 -11 0 -1 32 14 43 8 5 7
9 -2 15 -7 5 -13 33 -14 67 -2 46 -6 59 -20 63 -10 2 -18 8 -18 13 0 5 -18 12
-40 15 -42 7 -60 26 -60 63 0 11 -4 22 -8 25 -5 3 -8 -5 -8 -17 1 -26 -41 -37
-55 -15 -7 11 -9 10 -9 -1 0 -11 -6 -8 -20 7 -12 12 -28 21 -38 21 -16 -1 -16
-2 1 -6 9 -2 17 -11 17 -18 0 -17 -34 -38 -44 -27 -4 3 -4 -1 0 -11 4 -12 -1
-20 -17 -26 -13 -5 -19 -10 -12 -10 15 -1 36 -61 21 -61 -6 0 -7 -7 -3 -18 4
-9 9 -24 12 -32 4 -13 4 -13 -6 0 -14 20 -14 5 0 -22 8 -14 7 -28 -1 -48 -9
-22 -9 -37 0 -65 9 -27 9 -40 1 -48 -8 -8 -11 -4 -11 14 -1 21 -2 22 -11 6
-13 -23 -27 -14 -24 15 1 13 0 15 -2 6 -2 -10 -11 -18 -19 -18 -8 0 -14 -4
-14 -10 0 -5 7 -7 16 -3 14 5 15 3 5 -15 -12 -23 -51 -20 -51 4 0 8 -8 23 -17
33 -9 11 -18 27 -19 36 -3 18 -23 45 -33 45 -19 0 -43 -30 -51 -63 -7 -32 -5
-39 12 -51 19 -14 19 -16 4 -37 -9 -13 -16 -31 -16 -41 0 -11 -5 -15 -15 -12
-19 8 -19 23 1 45 9 10 14 26 12 36 -4 14 -9 9 -23 -20 -10 -20 -22 -37 -26
-37 -4 0 -10 -12 -14 -27 l-7 -28 -11 23 c-8 18 -6 28 11 52 12 16 22 33 22
38 0 19 -64 72 -96 78 -43 8 -46 13 -33 57 13 49 34 67 77 67 32 0 34 1 18 13
-11 8 -16 20 -13 28 4 10 6 9 6 -3 2 -31 17 -19 27 22 8 26 8 37 1 33 -6 -4
-8 0 -4 10 3 9 1 18 -6 21 -7 2 -5 5 5 5 9 1 21 15 27 31 10 31 19 39 18 18
-3 -80 17 -85 28 -8 7 56 24 90 40 84 7 -3 20 7 29 21 9 14 22 23 28 19 5 -4
13 -2 17 4 4 7 32 4 86 -10 88 -23 184 -35 150 -19 -11 5 -31 10 -45 11 -14 0
-43 8 -65 16 -22 8 -51 17 -64 20 -57 12 -50 32 11 32 49 1 68 4 86 15 7 5 12
3 12 -3 0 -6 5 -8 11 -4 6 3 28 -2 50 -11 37 -17 38 -19 23 -36 -9 -10 -21
-16 -25 -13 -5 3 -9 0 -9 -5 0 -6 12 -11 27 -11 14 0 34 -7 44 -16 10 -9 19
-11 23 -5 4 5 0 16 -7 22 -12 11 -11 18 2 41 13 22 13 30 4 36 -10 7 -10 12 0
26 9 12 12 36 9 66 -2 28 1 55 8 66 9 16 11 16 6 2 -4 -15 0 -16 27 -11 27 5
30 4 20 -8 -15 -19 -2 -41 23 -39 42 5 59 1 46 -12 -11 -11 -26 -16 -64 -20
-20 -2 -22 -7 -9 -27 5 -7 13 -11 19 -7 17 11 31 -19 28 -60 -2 -21 0 -47 5
-56 7 -13 6 -18 -2 -18 -7 0 -10 -2 -7 -5 3 -3 13 -2 22 1 14 5 15 9 4 15 -10
6 -10 11 -1 20 8 8 10 34 6 80 -4 48 -2 69 6 70 15 2 23 4 48 13 25 8 56 63
46 79 -4 6 0 8 11 4 10 -4 26 -2 36 3 13 7 20 6 22 -1 3 -8 10 -6 21 5 18 19
23 41 7 31 -5 -3 -10 -1 -10 4 0 6 5 11 10 11 15 0 12 30 -4 36 -8 3 -12 12
-9 20 3 8 0 14 -7 14 -9 0 -9 4 1 17 11 13 11 15 1 9 -7 -4 -18 -20 -23 -34
-8 -21 -12 -23 -19 -12 -8 13 -10 13 -10 1 0 -8 -3 -11 -7 -8 -4 4 2 20 13 35
33 44 35 50 19 56 -10 3 -15 1 -13 -7 2 -7 -1 -15 -7 -17 -5 -3 -11 8 -12 23
-1 23 2 27 14 23 8 -4 22 -1 29 5 11 9 14 8 14 -1 0 -8 3 -10 7 -7 3 4 -1 15
-10 25 -13 14 -29 18 -64 16 -27 -1 -58 2 -70 7 -14 5 -23 5 -23 -1 0 -6 -10
-8 -22 -5 -13 3 -30 1 -38 -5 -13 -9 -13 -11 0 -20 13 -9 13 -10 0 -11 -8 -1
-18 -1 -22 0 -4 0 -4 -7 -1 -16 5 -13 2 -15 -15 -11 -12 4 -22 2 -22 -4 0 -5
-4 -7 -9 -3 -5 3 -16 -1 -24 -9 -8 -8 -17 -13 -19 -10 -3 2 -13 -8 -23 -23
-16 -24 -16 -26 -2 -14 9 7 17 10 17 5 0 -5 5 -2 10 6 7 10 10 11 10 2 0 -7
-7 -15 -15 -18 -8 -4 -12 -11 -8 -18 3 -6 3 -8 -1 -4 -4 3 -21 2 -37 -2 -17
-5 -29 -5 -29 1 0 5 6 9 14 9 10 0 14 10 14 30 -1 33 -18 42 -18 10 0 -11 -4
-20 -10 -20 -15 0 -12 21 5 40 14 16 13 17 -11 16 -15 -1 -28 5 -30 12 -1 7 0
8 3 2 9 -20 20 -10 15 15 -2 14 -9 25 -16 25 -6 0 -4 5 4 10 12 8 10 10 -9 10
-21 0 -23 -3 -17 -35 7 -38 -6 -45 -44 -25 -13 7 -21 7 -25 0 -3 -5 -1 -10 5
-10 8 0 8 -6 0 -20 -11 -21 -49 -28 -51 -10 -1 6 -3 15 -4 20 -1 6 -3 13 -4
16 0 3 -8 -2 -18 -11 -13 -14 -18 -14 -24 -3 -11 19 -6 46 12 60 8 7 12 12 10
11 -2 -2 -11 3 -19 10 -9 6 -13 7 -10 2 4 -6 0 -21 -9 -35 -14 -24 -14 -24 -9
-2 4 19 2 21 -10 11 -7 -6 -11 -15 -8 -20 3 -5 0 -9 -6 -9 -7 0 -5 -7 4 -16
19 -19 20 -26 4 -42 -10 -10 -6 -12 17 -8 17 2 24 1 17 -1 -7 -3 -10 -9 -7
-14 4 -5 1 -9 -5 -9 -7 0 -9 -8 -5 -20 4 -13 1 -22 -9 -26 -9 -3 -13 -10 -10
-16 4 -5 11 -5 18 1 16 14 26 4 19 -17 -3 -12 -2 -14 4 -4 14 19 44 -18 36
-46 -3 -12 -9 -19 -14 -17 -4 3 -11 0 -16 -7 -8 -13 -53 -21 -51 -9 2 21 -4
30 -17 25 -8 -4 -15 -14 -16 -23 0 -14 -1 -14 -7 0 -8 18 -63 20 -69 2 -3 -7
-12 -9 -21 -6 -14 4 -14 3 -2 -5 8 -6 17 -9 21 -6 4 2 7 -5 6 -16 -1 -21 -21
-27 -32 -10 -4 6 -11 8 -16 4 -6 -4 -6 -11 2 -20 9 -11 7 -14 -15 -14 -16 0
-25 4 -21 10 3 6 -1 10 -10 10 -9 0 -13 -5 -10 -10 4 -6 -7 -10 -24 -10 -17 0
-31 -4 -31 -10 0 -5 9 -10 19 -10 26 0 51 -10 51 -21 0 -5 -8 -9 -19 -9 -10 0
-24 -7 -31 -15 -7 -8 -27 -16 -44 -16 -21 -1 -25 -3 -11 -6 11 -3 25 -10 32
-15 7 -5 16 -7 22 -4 5 3 11 2 13 -4 2 -6 14 -4 30 4 15 8 29 12 32 9 6 -6
-38 -43 -51 -43 -5 0 -9 -17 -10 -37 -1 -21 1 -29 4 -19 6 22 53 72 53 56 0
-21 20 -9 26 15 7 29 17 26 19 -5 1 -11 -4 -20 -10 -20 -7 0 -18 -7 -25 -15
-6 -8 -16 -13 -22 -12 -5 1 -15 -7 -21 -18 -7 -11 -16 -23 -21 -26 -5 -4 -6
-13 -4 -20 3 -8 -5 -22 -18 -31 -24 -20 -45 -25 -27 -7 14 14 -5 39 -24 32 -9
-4 -8 -11 3 -29 15 -21 14 -26 -5 -52 -11 -16 -28 -35 -38 -43 -16 -12 -17
-12 -7 1 16 22 25 52 14 45 -14 -8 -13 8 1 22 15 15 1 36 -19 28 -14 -5 -14
-4 -1 12 16 19 14 58 -2 48 -5 -4 -9 -1 -9 5 0 7 -12 4 -30 -7 -17 -9 -30 -20
-30 -23 0 -3 -26 -6 -57 -6 -41 1 -57 -3 -56 -11 2 -7 -9 -16 -23 -19 -16 -4
-23 -12 -20 -20 3 -7 1 -16 -5 -19 -5 -4 -7 -10 -4 -15 3 -4 -2 -13 -9 -19
-10 -8 -16 -9 -21 -1 -3 6 -11 8 -16 5 -5 -4 -9 0 -9 7 0 7 -10 19 -21 27 -18
11 -23 11 -30 -1 -5 -7 -9 -20 -9 -28 -1 -11 -6 -8 -20 9 -15 18 -20 19 -20 7
0 -9 -4 -16 -9 -16 -17 0 -28 25 -21 45 4 11 5 32 3 47 -5 28 -5 29 46 44 11
4 9 9 -8 21 l-23 15 36 30 c20 16 36 37 36 46 0 13 9 17 40 16 25 0 40 4 40
12 0 13 40 24 104 28 28 2 46 10 62 29 13 15 38 30 56 34 18 3 37 11 41 17 6
8 10 7 14 -1 9 -24 33 -13 83 38 28 28 50 47 50 43 0 -4 6 -1 13 8 6 9 21 18
32 20 11 2 31 14 44 28 19 19 23 21 18 6 -6 -14 -4 -17 9 -12 8 3 22 6 29 6 8
0 13 9 12 20 -1 11 -5 20 -9 20 -4 0 -8 5 -8 11 0 5 5 7 12 3 7 -5 8 -3 3 5
-13 22 -28 -4 -16 -28 9 -16 9 -19 -2 -16 -22 9 -19 53 4 60 13 4 25 2 29 -5
4 -6 7 2 6 19 -1 34 -10 40 -20 15 -4 -10 -13 -14 -26 -11 -16 4 -24 -2 -33
-24 -14 -32 -37 -27 -40 9 -2 28 -13 28 -20 1 -3 -12 -10 -18 -16 -14 -7 3 -8
0 -5 -9 3 -9 1 -16 -4 -16 -6 0 -16 -16 -23 -35 -13 -34 -14 -35 -23 -13 -8
20 -10 21 -13 5 -5 -21 -28 -18 -28 4 0 8 -4 17 -10 21 -6 5 -5 8 3 8 6 0 12
8 11 18 0 10 -3 12 -6 5 -7 -18 -43 -16 -43 2 0 9 -9 15 -21 15 -18 0 -19 2
-9 15 7 9 18 14 24 12 6 -2 17 2 24 10 17 17 27 16 46 -2 21 -21 28 -19 14 5
-10 16 -10 22 0 32 11 11 12 10 7 -4 -9 -22 12 -23 39 -3 20 15 20 15 0 16
-18 0 -18 1 1 8 11 5 25 4 32 -1 7 -6 19 -1 35 14 30 31 118 73 127 62 7 -11
61 -13 61 -2 0 4 16 12 35 19 19 7 35 16 35 19 0 15 -14 19 -27 9 -10 -9 -13
-8 -13 0 0 16 26 42 34 34 3 -3 21 6 40 21 19 14 38 26 43 26 4 0 0 -5 -9 -11
-10 -5 -18 -15 -18 -20 0 -6 5 -7 10 -4 6 3 10 3 11 -2 0 -4 2 -17 4 -28 2
-10 -2 -26 -8 -34 -10 -12 -9 -13 3 -6 24 15 40 14 40 -1 0 -8 5 -14 11 -14 6
0 9 6 6 13 -2 6 5 23 17 37 11 14 14 19 6 13 -17 -15 -34 -17 -25 -3 3 6 1 10
-5 10 -6 0 -9 -8 -6 -18 4 -12 1 -19 -9 -19 -8 0 -13 8 -11 19 8 53 82 38 100
-20 4 -12 12 -19 18 -16 7 4 6 9 -1 14 -7 4 -11 11 -10 16 3 19 -1 37 -8 31
-4 -4 -13 7 -20 24 -17 40 -16 49 1 49 8 0 17 7 20 16 3 8 10 13 15 10 17 -11
33 21 22 42 -9 17 -8 19 10 15 11 -3 17 -9 12 -12 -10 -8 -15 -32 -18 -100 -2
-52 -2 -53 15 -31 15 20 17 20 17 4 0 -11 -5 -22 -11 -26 -7 -5 -4 -8 7 -8 9
0 17 -7 17 -15 0 -8 5 -15 10 -15 6 0 10 -4 10 -10 0 -5 -13 -10 -30 -10 -20
0 -30 -5 -30 -15 0 -9 6 -12 17 -8 11 4 14 3 9 -5 -10 -17 0 -15 18 4 15 14
16 13 17 -8 0 -13 3 -17 6 -10 2 6 10 9 15 6 6 -4 8 -2 4 4 -3 6 -2 13 4 17 6
3 13 -1 16 -9 3 -9 11 -16 16 -16 6 0 5 7 -3 16 -10 13 -10 17 2 25 20 13 29
11 23 -5 -3 -8 -1 -17 5 -21 7 -4 8 0 4 11 -5 14 -3 16 11 11 10 -4 21 -7 24
-7 4 0 0 -5 -8 -10 -12 -7 -8 -10 15 -10 23 0 27 -3 15 -10 -12 -8 -8 -10 15
-11 17 -1 38 0 48 1 10 1 27 -9 38 -21 18 -21 19 -21 19 -3 0 11 -6 26 -12 33
-10 11 -10 13 0 7 8 -5 12 1 12 19 0 22 -3 24 -19 16 -15 -8 -20 -7 -25 5 -7
18 0 34 15 34 6 0 7 -6 3 -12 -6 -10 -4 -10 8 0 14 11 16 50 17 282 1 212 -1
270 -11 270 -9 0 -9 3 -2 8 15 10 12 101 -3 107 -7 2 -13 0 -13 -6 0 -6 -5 -7
-12 -3 -19 12 -208 5 -288 -10 -41 -8 -77 -13 -81 -10 -4 2 -6 -3 -5 -11 1 -9
5 -15 9 -15 4 0 12 0 18 0 5 0 7 4 4 10 -3 6 3 10 15 10 24 0 35 -22 25 -47
-6 -17 -7 -17 -16 0 -6 9 -17 17 -25 17 -8 0 -13 -4 -9 -9 3 -6 -7 -6 -27 0
-18 5 -35 14 -36 19 -7 19 -33 40 -50 39 -11 0 -12 -2 -5 -6 7 -2 13 -14 13
-26 0 -18 -2 -19 -10 -7 -7 11 -10 11 -10 2 0 -7 -4 -10 -10 -7 -6 3 -10 2
-10 -2 0 -10 -60 -11 -75 -2 -5 4 -21 5 -35 4 -19 -1 -24 -7 -22 -21 2 -10 9
-22 15 -26 9 -6 9 -8 0 -8 -7 0 -17 8 -22 17 -6 10 -11 13 -11 7 0 -6 6 -16
13 -22 16 -13 130 -13 138 0 4 7 14 6 29 -2 18 -10 24 -9 36 7 13 16 13 16 8
1 -5 -15 -1 -17 22 -13 64 10 104 12 99 5 -3 -5 3 -11 12 -13 12 -3 8 -5 -9
-6 -29 -1 -46 -16 -26 -24 20 -7 -73 0 -105 8 -24 6 -26 5 -21 -11 3 -12 3
-15 -3 -8 -4 6 -19 15 -31 19 -34 10 -203 -5 -207 -19 -15 -53 -39 -218 -33
-222 5 -3 6 -9 3 -14 -8 -13 -68 -5 -73 9 -2 6 -8 9 -13 5 -5 -3 -9 4 -9 15 0
12 -4 21 -9 21 -5 0 -8 11 -6 25 2 20 -1 23 -11 14 -7 -6 -11 -16 -8 -22 2 -7
-5 -18 -16 -25 -17 -10 -20 -10 -20 5 -1 16 -1 16 -10 2 -5 -9 -21 -20 -35
-23 -14 -4 -23 -11 -20 -16 7 -12 -90 -6 -126 8 -28 11 -42 6 -53 -18 -3 -8
-3 8 0 35 4 28 7 58 7 68 1 9 4 17 8 17 6 0 22 73 24 115 0 11 4 26 9 33 9 16
-2 71 -12 55 -4 -5 -15 -11 -24 -12 -10 -1 -27 -2 -37 -3 -11 -1 -17 -6 -15
-10 3 -4 0 -8 -6 -8 -6 0 -9 -4 -5 -10 6 -9 -39 -44 -59 -46 -6 0 -17 -2 -24
-2 -7 -1 -10 -6 -7 -12 3 -6 -4 -10 -17 -10 -13 0 -30 -5 -38 -11 -12 -9 -10
-10 9 -5 14 3 30 -1 38 -10 8 -8 11 -14 6 -14 -5 0 -14 5 -21 12 -8 8 -12 9
-12 1 0 -8 -16 -10 -46 -7 -35 4 -44 3 -39 -7 5 -7 4 -10 -3 -5 -6 3 -14 1
-18 -5 -4 -8 -9 -7 -15 2 -8 12 -10 12 -18 0 -5 -7 -13 -11 -19 -7 -6 3 -13 0
-15 -6 -4 -10 -6 -10 -6 0 -1 7 6 15 14 18 8 4 15 13 15 20 0 8 7 17 15 20 8
4 12 11 9 16 -4 6 -10 5 -15 -3 -5 -9 -9 -10 -9 -2 0 6 -9 9 -22 5 -14 -3 -19
-2 -14 6 4 7 2 12 -3 12 -6 0 -11 -7 -11 -15 0 -8 -7 -15 -16 -15 -8 0 -12 4
-9 10 3 6 -1 7 -9 4 -9 -3 -16 -13 -16 -21 0 -13 -3 -13 -15 -3 -11 10 -18 9
-30 -4 -19 -18 -31 -20 -40 -6 -3 6 -14 10 -23 9 -14 0 -13 -2 3 -9 l20 -9
-20 0 c-11 0 -26 3 -34 8 -10 7 -5 11 18 16 17 4 29 10 26 15 -8 13 -44 0 -59
-21 -7 -10 -16 -16 -19 -12 -4 3 -7 1 -7 -5 0 -7 -5 -12 -11 -12 -5 0 -7 5 -3
12 5 7 3 8 -5 3 -25 -15 6 -30 34 -17 32 15 35 15 35 2 0 -5 -6 -10 -14 -10
-8 0 -21 -6 -28 -12 -16 -16 -93 -24 -83 -9 7 12 -14 14 -40 5 -13 -6 -14 -9
-3 -16 12 -9 -16 -3 -51 10 -10 4 -12 1 -6 -9 7 -11 5 -11 -10 1 -18 14 -18
15 3 18 12 2 22 8 22 13 0 5 3 8 8 7 11 -4 52 35 52 49 0 20 63 44 131 48 100
6 239 27 234 35 -2 4 -26 7 -52 8 -35 1 -43 -2 -28 -8 14 -6 1 -8 -40 -7 -93
2 -147 -2 -142 -10 3 -5 -5 -9 -16 -9 -45 -3 -65 -8 -61 -15 5 -9 -115 -37
-188 -44 -10 -1 -32 -14 -49 -30 -32 -27 -101 -51 -120 -40 -5 4 -9 2 -9 -3 0
-5 -21 -13 -47 -17 -60 -9 -80 -19 -88 -46 -4 -12 -12 -18 -21 -15 -16 6 -109
-65 -99 -76 3 -3 -2 -5 -10 -5 -8 0 -12 4 -9 9 3 4 -1 8 -8 8 -8 0 -14 -9 -15
-20 -1 -13 2 -18 9 -14 7 4 8 2 4 -4 -11 -19 -21 -14 -33 16 -10 24 -11 25
-12 5 -1 -12 3 -33 9 -47 7 -21 6 -26 -5 -26 -9 0 -12 -6 -9 -15 5 -12 -2 -15
-34 -15 -56 0 -106 -11 -92 -20 7 -4 -5 -8 -26 -9 -22 -1 -54 -3 -71 -5 -18
-1 -33 1 -33 6 0 5 -5 6 -10 3 -6 -3 -15 4 -20 17 l-10 23 3 -25 c2 -20 -3
-25 -22 -26 -14 -1 -36 9 -50 22 -30 28 -25 30 74 38 157 14 201 19 218 28 9
5 23 6 29 2 8 -5 5 -10 -8 -15 -16 -6 -16 -8 -2 -8 9 -1 19 3 22 8 9 15 -16
28 -69 36 -27 4 -54 10 -60 15 -9 6 -92 19 -133 20 -7 0 -11 4 -8 9 7 10 96 9
113 -2 6 -4 13 -3 15 2 1 4 14 12 28 16 22 7 23 6 12 -8 -11 -13 -8 -14 25
-11 21 3 50 6 66 9 29 5 37 -9 11 -19 -9 -3 -30 -6 -46 -6 -45 0 -31 -7 25
-13 44 -5 47 -4 47 19 0 22 29 44 62 48 8 1 34 26 27 26 -4 0 -136 -26 -154
-30 -25 -6 -44 2 -50 20 -4 11 -10 18 -14 16 -4 -3 -8 1 -8 9 0 10 11 15 31
16 26 0 28 2 11 9 -16 6 -17 9 -5 14 22 8 124 23 149 21 12 -1 21 4 21 12 0 8
13 13 38 13 20 0 43 4 51 9 9 6 -1 8 -30 7 -52 -3 -92 9 -86 27 2 6 9 13 15
13 7 1 19 2 27 3 8 0 15 4 15 9 0 4 -25 8 -55 9 -32 1 -55 -2 -55 -8 0 -6 5
-7 10 -4 6 3 10 1 10 -5 0 -6 5 -8 10 -5 5 3 10 -1 10 -9 0 -18 -16 -21 -25
-6 -8 13 -102 13 -110 0 -4 -6 -11 -8 -16 -5 -5 4 -9 0 -9 -7 0 -9 -3 -9 -8
-2 -4 6 -15 13 -25 17 -15 6 -17 3 -12 -13 4 -11 2 -20 -4 -20 -6 0 -11 7 -11
16 0 12 -3 14 -12 6 -19 -15 -69 -17 -103 -3 -16 7 -53 17 -82 21 -29 5 -61
14 -72 20 -11 6 -81 11 -156 12 -74 1 -135 5 -135 9 0 4 -9 5 -20 2 -18 -5
-19 -1 -14 65 4 60 2 72 -13 82 -16 10 -16 11 5 7 14 -4 22 0 22 9 0 8 -4 14
-10 14 -5 0 -7 7 -3 16 4 11 8 12 13 4 4 -7 12 0 19 18 7 17 24 40 37 53 l24
23 -27 18 c-16 10 -22 18 -15 18 6 0 12 9 12 20 0 11 5 20 10 20 6 0 9 3 8 8
-2 4 2 7 7 7 6 0 9 -4 8 -10 -1 -5 -5 -22 -9 -37 -4 -17 -2 -28 4 -28 5 0 13
27 17 60 4 33 11 63 16 66 5 3 9 15 9 27 0 18 2 19 10 7 8 -11 9 -9 6 10 -3
14 -5 27 -6 30 -1 3 -2 14 -1 25 l1 20 -9 -20 -8 -20 -6 20 c-4 11 -4 2 -1
-20 3 -26 2 -35 -4 -26 -6 9 -18 11 -33 6 l-24 -7 23 20 c14 12 19 23 12 27
-16 10 -48 -4 -55 -25 -5 -16 -9 -17 -20 -7 -7 6 -11 14 -9 16 2 2 -1 12 -6
21 -7 13 -6 20 5 24 8 3 15 1 15 -4 0 -6 5 -10 10 -10 6 0 9 3 9 8 -3 19 2 33
10 28 5 -3 12 1 15 9 4 11 -6 9 -37 -9 -23 -13 -41 -29 -39 -35 1 -6 -5 -14
-13 -17 -8 -4 -15 -11 -15 -17 0 -7 4 -7 12 1 18 18 30 14 19 -7 -6 -10 -8
-21 -5 -24 3 -3 -2 -4 -12 -4 -9 1 -19 -4 -22 -12 -3 -9 0 -11 9 -6 8 5 11 4
6 -1 -5 -5 -14 -9 -20 -9 -7 0 -13 -6 -13 -12 -1 -7 -2 -18 -3 -25 -1 -9 -4
-9 -12 -1 -7 7 -8 17 -3 25 5 7 9 21 10 31 3 41 4 42 13 28 7 -10 9 -7 8 11
-2 25 -27 36 -27 12 0 -7 -5 -16 -12 -20 -7 -5 -9 -2 -6 7 10 26 -70 16 -89
-10 -23 -33 -143 -108 -172 -107 -8 1 -15 7 -17 14 -1 7 0 8 3 2 3 -7 11 -7
24 0 10 6 19 7 20 3 0 -4 7 6 14 22 8 17 14 25 15 18 0 -9 8 -8 28 3 15 7 32
14 38 14 6 0 17 7 24 15 16 19 1 19 -26 1 -24 -17 -74 -23 -92 -12 -7 4 -16 5
-19 2 -4 -3 -2 -6 4 -6 6 0 13 -7 16 -14 4 -11 1 -13 -10 -9 -9 4 -14 2 -10
-3 3 -5 -12 -9 -33 -9 -21 0 -36 3 -34 7 6 9 -32 49 -43 46 -5 -1 -10 7 -12
17 -4 22 -32 46 -44 38 -4 -2 -14 0 -20 6 -13 10 -60 4 -53 -8 2 -3 -7 -7 -20
-7 -22 -2 -23 -1 -8 10 12 9 14 15 6 20 -7 4 -12 2 -12 -3 0 -6 -6 -11 -14
-11 -8 0 -21 -6 -28 -12 -20 -19 -38 -20 -32 -3 4 8 9 13 13 11 3 -2 15 2 26
11 19 13 18 14 -10 7 -16 -4 -36 -7 -44 -7 -7 0 -16 -9 -19 -19 -2 -10 -9 -18
-16 -18 -6 0 -2 -8 9 -16 20 -16 20 -16 -2 -9 -14 4 -24 2 -24 -4 -3 -26 -4
-30 -11 -37 -5 -4 -8 -16 -8 -26 0 -17 -15 -23 -47 -19 -17 2 -84 -35 -76 -43
3 -3 1 -6 -5 -6 -6 0 -9 -8 -6 -17 5 -14 4 -15 -4 -4 -5 7 -15 11 -21 7 -7 -5
-8 -1 -4 10 5 14 3 15 -15 5 -12 -7 -22 -16 -22 -21 0 -13 -43 -17 -56 -5 -9
7 -8 17 2 37 9 17 10 29 4 33 -6 3 -10 3 -10 -2 0 -4 -7 -17 -15 -27 -12 -16
-17 -17 -32 -5 -17 13 -17 12 0 -8 12 -14 15 -23 8 -28 -6 -3 -16 6 -23 20 -8
19 -14 22 -20 13 -6 -10 -10 -10 -17 1 -5 7 -13 11 -17 9 -5 -3 -18 -2 -28 2
-18 6 -16 8 12 21 18 8 35 21 37 30 4 10 15 15 30 13 21 -2 25 2 26 24 0 23 2
24 8 8 4 -11 17 -20 29 -21 16 -1 25 8 37 37 8 22 22 38 31 38 10 0 14 5 10
15 -3 8 -1 15 3 15 9 0 7 68 -2 76 -2 2 -18 -1 -36 -7 -17 -6 -43 -8 -56 -5
-18 5 -32 0 -47 -14 -14 -13 -29 -18 -45 -14 -16 4 -25 1 -29 -10 -3 -9 -15
-16 -25 -16 -11 0 -19 -7 -19 -16 0 -8 -4 -12 -10 -9 -17 10 -11 -12 7 -26 11
-10 14 -10 9 -1 -4 6 -3 12 2 12 6 0 13 -7 16 -16 8 -21 27 -8 19 14 -5 15 -4
15 13 -1 18 -18 18 -19 0 -32 -11 -9 -15 -19 -10 -27 4 -7 -5 -3 -20 10 -35
27 -49 28 -41 2 4 -12 2 -20 -5 -20 -14 0 -41 -26 -34 -33 3 -2 -2 -7 -11 -10
-20 -8 -19 3 5 33 11 14 19 32 19 40 0 8 -4 5 -9 -7 -5 -13 -16 -23 -25 -23
-17 0 -21 -46 -5 -70 8 -13 10 -12 10 3 0 9 7 17 15 17 8 0 20 9 27 20 15 24
28 26 28 5 0 -8 -6 -15 -14 -15 -9 0 -12 -8 -8 -25 2 -14 0 -25 -7 -25 -5 0
-8 7 -5 15 4 8 1 15 -6 15 -6 0 -14 -9 -17 -20 -3 -11 -8 -20 -12 -20 -14 1
-37 26 -34 37 2 6 -1 15 -8 19 -7 4 -10 3 -7 -2 6 -9 -15 -34 -29 -35 -21 -3
-38 -26 -37 -49 1 -14 -3 -31 -8 -37 -7 -9 -7 -13 1 -13 6 0 11 5 11 11 0 5 4
8 10 4 5 -3 7 -12 3 -20 -4 -11 -1 -13 11 -9 15 6 20 21 18 54 0 8 6 19 14 23
8 5 12 12 9 17 -3 4 4 6 15 3 26 -7 26 -20 0 -28 -26 -8 -26 -21 1 -28 12 -3
18 -3 15 0 -10 10 15 33 35 33 11 0 19 -5 19 -11 0 -8 4 -8 14 0 11 9 12 6 8
-14 -4 -21 -7 -23 -19 -14 -11 10 -13 9 -11 -2 2 -8 -5 -14 -14 -14 -10 0 -25
-8 -35 -18 -16 -16 -16 -17 0 -17 24 0 21 -17 -3 -23 -18 -4 -26 -29 -21 -60
1 -4 -8 -3 -19 3 -11 6 -20 18 -20 27 0 9 -3 13 -7 10 -3 -4 -12 -2 -19 4 -9
8 -11 5 -7 -11 4 -16 2 -19 -11 -14 -11 4 -16 1 -16 -11 0 -11 -5 -15 -15 -11
-8 3 -15 2 -15 -3 0 -6 -70 -11 -70 -5 0 11 29 52 33 47 4 -3 7 1 7 11 0 9 6
19 14 22 8 3 16 14 19 24 6 22 -17 45 -34 35 -13 -9 21 47 35 57 18 12 -1 20
-21 10 -12 -7 -25 -7 -34 -1 -10 6 -11 9 -1 9 18 0 52 82 40 97 -7 8 -3 16 11
25 12 7 21 21 21 30 0 16 -8 20 -72 33 -11 2 -22 -9 -33 -31 -22 -46 -31 -49
-44 -13 -6 17 -15 28 -20 25 -5 -4 -12 -2 -16 4 -4 6 -11 7 -17 4 -6 -4 -14 0
-19 7 -7 11 -9 10 -9 -5 0 -14 -3 -16 -14 -7 -9 7 -12 28 -10 60 2 37 -1 51
-12 55 -8 3 -12 1 -9 -4 3 -6 -1 -7 -9 -4 -9 3 -16 10 -16 16 0 5 -4 7 -9 4
-5 -4 -11 -3 -14 1 -2 5 -3 3 -1 -3z m784 -49 c-10 -12 -10 -18 0 -30 9 -11 8
-20 -7 -42 -11 -15 -23 -37 -27 -47 -3 -10 -9 -16 -13 -13 -3 4 -12 2 -20 -4
-10 -9 -13 -7 -13 10 0 12 -6 21 -15 21 -14 0 -20 -12 -16 -33 1 -5 -4 -7 -10
-5 -18 6 -27 40 -18 63 6 16 8 13 9 -15 l1 -35 15 40 c8 22 18 48 21 57 3 9
11 14 19 11 8 -3 14 0 14 6 0 6 4 11 10 11 6 0 6 -9 0 -24 -10 -28 -6 -36 19
-29 13 3 17 11 14 24 -5 17 11 49 24 49 3 0 0 -7 -7 -15z m-100 -25 c0 -5 -2
-10 -4 -10 -3 0 -8 5 -11 10 -3 6 -1 10 4 10 6 0 11 -4 11 -10z m-447 -65 c-3
-9 -8 -14 -10 -11 -3 3 -2 9 2 15 9 16 15 13 8 -4z m67 -9 c0 -2 -8 -10 -17
-17 -16 -13 -17 -12 -4 4 13 16 21 21 21 13z m-146 -15 c7 -10 -3 -41 -13 -41
-3 0 -7 11 -7 25 -2 25 10 33 20 16z m466 -26 c-7 -9 -15 -13 -17 -11 -6 6 20
36 26 30 2 -2 -2 -10 -9 -19z m455 5 c-3 -5 -12 -10 -18 -10 -7 0 -6 4 3 10
19 12 23 12 15 0z m785 3 c0 -5 -5 -15 -10 -23 -7 -11 -10 -11 -10 -2 0 7 -4
11 -9 7 -5 -3 -12 -1 -15 4 -4 5 2 12 11 14 29 7 33 7 33 0z m-195 -33 c-3 -5
-11 -10 -16 -10 -6 0 -7 5 -4 10 3 6 11 10 16 10 6 0 7 -4 4 -10z m160 0 c3
-5 -1 -10 -9 -10 -9 0 -16 5 -16 10 0 6 4 10 9 10 6 0 13 -4 16 -10z m-1252
-34 c-3 -4 -9 -2 -14 5 -13 22 -11 31 5 17 8 -7 12 -17 9 -22z m-348 -7 c-4
-5 -2 -9 4 -9 6 0 8 -7 4 -15 -3 -9 -8 -13 -11 -10 -10 10 -10 55 0 49 4 -3 6
-10 3 -15z m45 5 c0 -8 -5 -12 -10 -9 -6 4 -8 11 -5 16 9 14 15 11 15 -7z
m1404 -11 c4 -9 1 -21 -5 -27 -9 -8 -10 -7 -6 7 4 9 2 17 -3 17 -6 0 -10 5
-10 10 0 16 17 11 24 -7z m-1514 -43 c0 -6 5 -8 10 -5 6 4 8 10 5 15 -3 4 2
11 10 14 13 5 14 2 3 -17 -7 -12 -13 -28 -14 -35 -4 -22 -14 -27 -14 -8 0 13
-6 17 -20 13 -13 -3 -20 0 -20 10 0 10 6 13 16 9 8 -3 12 -2 9 4 -3 6 -13 10
-21 10 -12 0 -12 3 -2 13 10 11 15 12 25 1 7 -7 13 -18 13 -24z m753 6 c4 -10
1 -13 -9 -9 -15 6 -19 23 -5 23 5 0 11 -7 14 -14z m883 -5 c0 -11 -5 -17 -13
-14 -10 4 -11 9 -2 19 15 18 15 18 15 -5z m-1231 -1 c-3 -5 -13 -10 -21 -10
-8 0 -14 5 -14 10 0 6 9 10 21 10 11 0 17 -4 14 -10z m65 -29 c0 -14 -5 -18
-20 -14 -19 5 -20 6 -3 19 23 17 23 17 23 -5z m-560 -11 c0 -5 -12 -17 -26
-26 -19 -13 -22 -19 -12 -25 7 -5 9 -9 3 -9 -30 0 -33 17 -9 43 25 28 44 35
44 17z m514 -32 c-3 -4 -11 -5 -20 -1 -11 4 -12 8 -3 20 10 11 14 11 20 1 4
-6 6 -15 3 -20z m216 2 c0 -17 -2 -19 -14 -8 -10 9 -11 15 -2 20 16 11 16 10
16 -12z m17 -2 c-3 -8 -6 -5 -6 6 -1 11 2 17 5 13 3 -3 4 -12 1 -19z m998 2
c-1 -21 -42 -57 -52 -46 -3 3 -13 0 -22 -7 -14 -10 -14 -10 -3 5 8 9 19 15 25
12 7 -2 18 5 25 16 8 13 8 20 1 20 -5 0 -7 5 -4 10 11 18 32 11 30 -10z
m-1115 -5 c-7 -8 -17 -12 -23 -8 -6 4 -3 9 9 14 27 11 28 11 14 -6z m56 -7 c3
-4 -1 -5 -10 -4 -8 1 -18 5 -22 8 -3 4 1 5 10 4 8 -1 18 -5 22 -8z m191 6 c-3
-3 -12 -4 -19 -1 -8 3 -5 6 6 6 11 1 17 -2 13 -5z m-732 -24 c3 -6 -1 -7 -9
-4 -18 7 -21 14 -7 14 6 0 13 -4 16 -10z m505 0 c0 -5 -5 -10 -11 -10 -5 0 -7
5 -4 10 3 6 8 10 11 10 2 0 4 -4 4 -10z m-440 -10 c0 -5 -4 -10 -10 -10 -5 0
-10 5 -10 10 0 6 5 10 10 10 6 0 10 -4 10 -10z m1340 -20 c0 -5 -5 -10 -11
-10 -5 0 -7 5 -4 10 3 6 8 10 11 10 2 0 4 -4 4 -10z m-990 -20 c0 -5 -2 -10
-4 -10 -3 0 -8 5 -11 10 -3 6 -1 10 4 10 6 0 11 -4 11 -10z m180 -10 c13 -8
11 -11 -7 -16 -13 -4 -20 -11 -17 -16 7 -10 -27 -39 -37 -32 -4 2 -5 -15 -3
-38 2 -24 1 -35 -2 -25 -3 9 -9 17 -14 17 -4 0 -6 10 -2 22 3 13 1 19 -5 15
-15 -10 -35 40 -20 50 47 31 83 38 107 23z m-303 -24 c-7 -15 -14 -20 -19 -13
-5 8 15 34 29 37 0 0 -4 -11 -10 -24z m78 -136 c10 -38 12 -61 6 -75 -5 -11
-11 -27 -14 -35 -2 -9 -6 -3 -9 12 -3 15 -1 25 3 22 14 -8 10 40 -3 55 -10 11
-10 13 0 7 15 -9 15 -1 2 25 -6 10 -16 19 -23 19 -8 0 -7 -4 3 -10 8 -5 11
-12 7 -17 -5 -4 -12 -1 -17 7 -6 10 -5 18 3 25 8 6 10 21 6 40 -12 56 -7 81 7
30 7 -27 20 -75 29 -105z m52 114 c-4 -15 -5 -14 -6 4 -1 15 -5 21 -13 16 -7
-5 -8 -3 -3 5 10 18 28 -2 22 -25z m229 29 c-10 -11 -37 -12 -30 -2 3 5 12 9
21 9 9 0 13 -3 9 -7z m-460 -28 c15 -14 21 -25 15 -25 -8 0 -10 -8 -6 -20 8
-25 -3 -26 -22 -2 -7 9 -12 12 -11 7 3 -11 -14 -34 -49 -67 -13 -12 -23 -25
-23 -29 0 -10 41 -2 54 11 5 5 19 10 31 10 16 0 17 -2 5 -10 -13 -8 -13 -11
-1 -22 10 -10 12 -10 7 0 -8 14 10 17 18 3 3 -5 -1 -11 -9 -15 -8 -3 -15 -12
-15 -21 0 -13 -4 -14 -20 -5 -16 9 -20 8 -20 -5 0 -17 -18 -19 -39 -6 -11 7
-6 13 22 25 20 8 37 20 37 25 0 18 -53 -8 -76 -37 -22 -26 -22 -27 -2 -44 15
-12 17 -21 10 -34 -9 -16 -11 -15 -22 5 -25 47 -60 77 -60 50 0 -5 5 -7 10 -4
6 3 10 4 10 1 0 -2 3 -12 7 -22 5 -13 3 -16 -10 -11 -9 3 -19 2 -22 -3 -4 -6
-1 -10 5 -10 6 0 10 -11 8 -25 -2 -13 2 -24 7 -24 6 0 9 6 7 13 -1 8 7 16 18
19 13 3 20 0 20 -9 0 -8 -5 -14 -10 -14 -6 0 -9 -17 -7 -37 2 -22 8 -37 15
-36 6 2 14 -8 18 -22 3 -14 11 -22 17 -18 6 4 8 0 4 -10 -4 -11 -2 -14 9 -10
10 4 12 0 8 -11 -6 -15 -9 -15 -30 -1 -13 8 -28 15 -34 15 -14 0 -13 -33 3
-50 6 -8 3 -7 -9 3 -18 15 -20 22 -10 51 6 19 15 32 21 29 5 -3 3 1 -5 10 -18
19 -70 12 -70 -9 0 -8 -5 -14 -11 -14 -5 0 -8 4 -5 9 3 5 -1 12 -10 15 -19 7
-15 66 6 83 13 11 13 12 -2 13 -37 0 0 69 60 110 27 18 48 39 45 46 -2 7 7 20
22 30 17 11 23 20 16 27 -7 7 -15 6 -26 -3 -10 -9 -15 -9 -15 -1 0 6 15 21 33
32 27 17 28 19 7 14 l-25 -7 29 31 c17 17 33 31 37 31 5 0 20 -11 35 -25z
m184 15 c0 -5 -2 -10 -4 -10 -3 0 -8 5 -11 10 -3 6 -1 10 4 10 6 0 11 -4 11
-10z m80 6 c0 -3 -4 -8 -10 -11 -5 -3 -10 -1 -10 4 0 6 5 11 10 11 6 0 10 -2
10 -4z m4330 -42 c0 -2 -30 -3 -67 -2 -62 1 -64 2 -23 7 43 6 90 3 90 -5z m55
-4 c3 -5 -1 -10 -9 -10 -8 0 -18 5 -21 10 -3 6 1 10 9 10 8 0 18 -4 21 -10z
m-4157 -25 c-12 -14 -23 -25 -25 -25 -1 0 3 11 9 25 6 14 17 25 25 25 8 0 6
-8 -9 -25z m-358 5 c0 -5 -4 -10 -10 -10 -5 0 -10 5 -10 10 0 6 5 10 10 10 6
0 10 -4 10 -10z m118 -50 c0 -9 -3 -7 -8 5 -5 11 -8 29 -8 40 0 16 2 15 8 -5
4 -14 8 -32 8 -40z m4202 43 c0 -3 -9 -3 -19 0 -23 6 -35 -15 -18 -32 22 -22
-5 -10 -31 14 -25 23 -25 24 -4 20 12 -2 24 0 27 5 5 8 45 2 45 -7z m-4397
-34 c4 -16 3 -18 -8 -9 -8 7 -18 9 -24 6 -5 -3 -17 -3 -28 1 -17 7 -8 11 48
22 4 0 9 -8 12 -20z m1183 2 c-12 -13 -13 -20 -6 -23 9 -3 8 -7 -1 -15 -11 -9
-14 -6 -16 17 -1 20 3 30 15 33 9 3 19 5 21 6 2 0 -4 -8 -13 -18z m2947 -8
c-4 -10 -8 -12 -10 -6 -3 7 -10 10 -18 7 -7 -3 -15 -1 -18 3 -3 5 7 10 23 11
24 2 28 -1 23 -15z m-3748 -85 c-9 -45 -19 -87 -23 -93 -26 -40 -34 -114 -11
-99 11 6 39 -20 39 -37 0 -9 -4 -8 -15 1 -10 9 -15 9 -15 1 0 -6 -5 -11 -11
-11 -5 0 -7 5 -3 11 4 7 1 10 -7 7 -17 -6 -24 -138 -7 -138 5 0 3 -7 -5 -14
-21 -21 -16 -105 7 -121 11 -9 13 -14 5 -17 -9 -3 -9 -9 -1 -25 6 -11 9 -30 7
-42 -2 -13 0 -19 7 -15 6 4 8 -1 5 -12 -3 -11 -9 -57 -13 -103 -4 -46 -15
-104 -25 -130 l-18 -46 -1 65 c0 36 -3 124 -7 197 -3 72 -2 140 2 150 10 26 6
237 -6 241 -5 2 -9 8 -9 13 0 4 6 6 14 3 9 -4 15 7 19 34 2 22 17 71 32 108
15 37 29 86 32 108 5 42 12 61 20 52 3 -2 -2 -42 -12 -88z m534 50 c0 -13 -3
-17 -6 -10 -2 6 -9 10 -14 6 -10 -6 -12 9 -2 19 13 14 23 7 22 -15z m54 -54
c-3 -8 0 -14 7 -14 6 0 8 -5 5 -10 -10 -16 -35 8 -28 27 4 9 -1 19 -10 25 -9
5 -14 15 -10 24 4 12 9 10 23 -12 10 -15 16 -33 13 -40z m-951 31 c3 -13 1
-22 -3 -19 -9 5 -13 44 -5 44 2 0 6 -11 8 -25z m1038 13 c0 -4 5 -8 11 -8 5 0
7 4 4 10 -3 6 1 7 10 4 13 -6 11 -12 -14 -36 -30 -29 -32 -30 -56 -14 -31 21
-24 39 10 26 19 -7 23 -6 18 5 -3 8 -10 12 -16 8 -5 -3 -7 -2 -4 4 7 12 37 13
37 1z m3324 -6 c-12 -7 -13 -17 -14 -100 0 -32 -5 -50 -11 -47 -5 4 -7 10 -4
14 5 10 -22 68 -36 76 -28 18 8 65 49 65 15 0 22 -4 16 -8z m107 -15 c-10 -9
-11 -8 -5 6 3 10 9 15 12 12 3 -3 0 -11 -7 -18z m-3546 -37 c-1 -11 -5 -23
-10 -27 -4 -5 -5 -2 -1 5 4 6 2 12 -3 12 -6 0 -11 -6 -12 -12 0 -10 -2 -10 -5
-1 -3 7 -12 9 -21 6 -11 -4 -14 -3 -9 6 5 7 14 10 22 7 8 -3 17 1 20 9 9 22
21 18 19 -5z m508 13 c-7 -2 -21 -2 -30 0 -10 3 -4 5 12 5 17 0 24 -2 18 -5z
m2687 -78 c0 -53 -4 -75 -12 -75 -9 0 -8 -4 2 -10 13 -8 13 -10 -2 -10 -28 0
-50 30 -43 59 4 14 10 28 14 31 5 3 11 22 15 43 12 62 26 41 26 -38z m380 71
c0 -3 -4 -8 -10 -11 -5 -3 -10 -1 -10 4 0 6 5 11 10 11 6 0 10 -2 10 -4z
m-474 -27 c-14 -11 -26 -29 -26 -39 0 -11 -11 -35 -24 -55 -14 -20 -27 -49
-31 -65 -4 -17 -11 -31 -16 -31 -5 -1 -15 -2 -21 -3 -7 -1 -16 3 -20 9 -5 6
-8 4 -8 -5 0 -13 -1 -13 -10 0 -7 11 -5 17 8 22 16 6 16 7 0 7 -21 1 -21 0 -7
57 12 45 40 64 32 20 -4 -16 0 -25 14 -28 30 -8 43 2 43 33 0 16 5 29 10 29 6
0 10 7 10 15 0 8 5 15 12 15 6 0 8 3 5 7 -11 10 10 28 33 30 20 2 20 1 -4 -18z
m-4076 -38 c0 -11 -4 -9 -15 5 -8 10 -15 25 -15 33 0 11 4 9 15 -5 8 -10 15
-25 15 -33z m880 28 c0 -5 -7 -9 -15 -9 -9 0 -12 6 -9 15 6 15 24 11 24 -6z
m1776 9 c4 -7 3 -8 -4 -4 -7 4 -12 2 -12 -3 0 -6 -9 -11 -21 -11 -16 0 -19 -4
-15 -17 4 -10 4 -14 0 -10 -4 4 -13 2 -20 -4 -14 -11 -26 2 -16 17 5 8 68 42
79 44 1 0 5 -5 9 -12z m-2216 -2 c0 -3 -4 -8 -10 -11 -5 -3 -10 -1 -10 4 0 6
5 11 10 11 6 0 10 -2 10 -4z m631 -30 c-11 -14 -15 -14 -36 0 -21 14 -23 13
-28 -7 -3 -13 -2 -30 3 -38 6 -10 10 -11 10 -3 0 6 7 12 16 12 8 0 12 -4 9
-10 -3 -5 -2 -10 2 -10 5 0 9 -9 9 -20 0 -11 -4 -20 -8 -20 -4 0 -8 9 -8 19 0
25 -33 24 -49 -1 -12 -20 -1 -24 16 -7 8 8 14 5 23 -10 16 -31 9 -66 -13 -64
-11 0 -16 -4 -13 -12 3 -9 -2 -11 -15 -8 -22 6 -26 33 -5 33 15 0 28 24 19 34
-11 10 -23 6 -20 -6 1 -7 -5 -11 -13 -9 -8 3 -25 5 -37 5 -16 1 -19 4 -11 14
7 8 7 12 -1 12 -6 0 -11 5 -11 10 0 6 7 10 15 10 13 0 14 2 3 14 -7 8 -15 14
-18 14 -33 -2 -50 37 -20 45 12 3 17 0 13 -8 -6 -17 27 -35 48 -26 9 3 15 14
14 23 -3 16 49 43 64 34 4 -3 13 -1 21 4 21 13 36 -5 21 -24z m2056 28 c-3 -3
-12 -4 -19 -1 -8 3 -5 6 6 6 11 1 17 -2 13 -5z m-3377 -14 c0 -5 -5 -10 -11
-10 -5 0 -7 5 -4 10 3 6 8 10 11 10 2 0 4 -4 4 -10z m100 -20 c0 -5 -4 -10
-10 -10 -5 0 -10 5 -10 10 0 6 5 10 10 10 6 0 10 -4 10 -10z m64 -16 c5 -14 4
-15 -9 -4 -17 14 -19 20 -6 20 5 0 12 -7 15 -16z m2622 -1 c-10 -11 -37 -12
-30 -2 3 5 12 9 21 9 9 0 13 -3 9 -7z m145 -7 c0 -5 -12 -11 -27 -12 -21 -2
-24 0 -13 12 13 16 40 15 40 0z m739 8 c0 -8 -19 -13 -24 -6 -3 5 1 9 9 9 8 0
15 -2 15 -3z m-3424 -52 c-14 -15 -15 -13 -3 17 8 23 13 28 15 16 2 -10 -3
-25 -12 -33z m731 1 c-3 -10 -5 -4 -5 12 0 17 2 24 5 18 2 -7 2 -21 0 -30z
m373 27 c0 -5 -4 -10 -10 -10 -5 0 -10 5 -10 10 0 6 5 10 10 10 6 0 10 -4 10
-10z m1357 4 c-3 -3 -12 -4 -19 -1 -8 3 -5 6 6 6 11 1 17 -2 13 -5z m-1166
-35 c-5 -13 -10 -19 -10 -12 -1 15 10 45 15 40 3 -2 0 -15 -5 -28z m1095 16
c-22 -17 -46 -20 -46 -6 0 8 21 16 55 19 6 1 1 -5 -9 -13z m904 -3 c0 -5 -7
-9 -15 -9 -8 0 -12 4 -9 9 3 4 9 8 15 8 5 0 9 -4 9 -8z m-3328 -21 c28 -14 29
-31 1 -31 -10 0 -13 6 -9 16 3 8 2 13 -3 10 -5 -3 -15 2 -22 11 -8 9 -9 15 -4
12 6 -3 22 -11 37 -18z m1912 3 c3 -8 2 -12 -4 -9 -6 3 -10 10 -10 16 0 14 7
11 14 -7z m586 9 c-8 -4 -20 -12 -27 -19 -18 -17 3 -30 23 -13 8 6 17 9 21 5
3 -3 0 -6 -8 -6 -11 0 -11 -2 1 -10 13 -8 12 -10 -2 -10 -22 0 -141 -40 -148
-50 -3 -4 -12 -10 -20 -13 -8 -3 13 -6 47 -6 61 -1 62 -1 46 -20 -13 -16 -21
-18 -36 -9 -15 7 -22 7 -28 -3 -7 -11 -9 -10 -9 4 0 12 -8 17 -30 17 -16 0
-30 4 -30 8 0 5 -14 7 -30 4 -25 -3 -29 -1 -24 12 3 9 17 16 30 16 21 0 24 4
18 25 -4 16 -2 25 6 25 6 0 8 -5 4 -11 -4 -7 -1 -10 7 -7 8 3 13 11 11 17 -1
7 2 9 8 6 8 -5 6 -13 -5 -25 -11 -12 -13 -20 -6 -25 6 -3 11 -1 11 5 0 7 8 9
21 5 18 -6 19 -4 11 12 -5 10 -6 27 -1 38 4 11 8 16 9 10 1 -5 3 -14 5 -20 1
-5 3 -17 4 -25 1 -9 4 -11 9 -5 4 6 15 11 25 12 51 2 53 3 29 16 -12 7 -19 17
-15 22 4 4 2 5 -5 1 -7 -4 -10 -11 -7 -16 3 -4 -4 -10 -15 -13 -11 -3 -20 -2
-20 1 1 20 21 34 53 35 20 2 39 6 43 10 4 4 14 7 23 6 14 0 14 -1 1 -6z
m-1663 -25 c-3 -8 -6 -5 -6 6 -1 11 2 17 5 13 3 -3 4 -12 1 -19z m1113 12 c0
-5 -2 -10 -4 -10 -3 0 -8 5 -11 10 -3 6 -1 10 4 10 6 0 11 -4 11 -10z m767 -5
c0 -8 -4 -12 -9 -9 -4 3 -8 9 -8 15 0 5 4 9 8 9 5 0 9 -7 9 -15z m563 7 c0 -5
-7 -9 -15 -9 -8 0 -15 4 -15 9 0 4 7 8 15 8 8 0 15 -4 15 -8z m-3315 -11 c3
-5 1 -12 -5 -16 -5 -3 -10 1 -10 9 0 18 6 21 15 7z m855 -17 c0 -8 -4 -12 -10
-9 -5 3 -10 13 -10 21 0 8 5 12 10 9 6 -3 10 -13 10 -21z m1810 1 c-7 -8 -16
-13 -20 -10 -5 3 -11 1 -15 -5 -4 -6 -10 -8 -15 -5 -5 3 -15 -3 -21 -13 -8
-12 -19 -17 -31 -14 -11 3 -25 -3 -33 -14 -12 -16 -14 -17 -15 -3 0 17 33 36
106 63 52 18 59 19 44 1z m244 -2 c4 -10 4 -15 1 -11 -4 3 -15 -2 -26 -13 -20
-20 -39 -18 -39 4 0 9 2 9 8 1 5 -8 14 -3 27 12 24 28 21 28 29 7z m111 7 c3
-6 -1 -7 -9 -4 -18 7 -21 14 -7 14 6 0 13 -4 16 -10z m-3045 -10 c0 -5 -5 -10
-11 -10 -5 0 -7 5 -4 10 3 6 8 10 11 10 2 0 4 -4 4 -10z m115 0 c3 -5 1 -10
-4 -10 -6 0 -11 5 -11 10 0 6 2 10 4 10 3 0 8 -4 11 -10z m632 -22 c-3 -7 -5
-2 -5 12 0 14 2 19 5 13 2 -7 2 -19 0 -25z m430 17 c0 -11 -4 -12 -14 -4 -7 6
-13 13 -13 15 0 2 6 4 13 4 8 0 14 -7 14 -15z m3580 -16 c0 -24 -2 -27 -10
-14 -5 9 -6 23 -3 31 8 22 13 17 13 -17z m-4694 7 c3 4 5 -2 4 -13 0 -11 -8
-19 -18 -19 -14 0 -15 4 -7 13 7 9 7 13 -1 13 -6 0 -11 5 -11 11 0 8 4 9 13 0
8 -6 17 -8 20 -5z m1334 -8 c2 -17 0 -19 -7 -8 -5 8 -6 18 -4 22 8 12 10 10
11 -14z m-811 1 c-15 -9 -16 -13 -5 -21 11 -8 10 -8 -4 -4 -10 3 -23 6 -28 6
-5 0 -4 7 3 15 7 8 22 14 33 14 19 0 19 0 1 -10z m1461 5 c-3 -3 -12 -4 -19
-1 -8 3 -5 6 6 6 11 1 17 -2 13 -5z m156 -1 c-7 -2 -19 -2 -25 0 -7 3 -2 5 12
5 14 0 19 -2 13 -5z m921 -5 c-3 -4 -12 -8 -20 -8 -8 0 -13 4 -10 8 3 5 12 9
20 9 8 0 13 -4 10 -9z m746 -8 c8 -5 11 -10 6 -10 -5 0 -3 -7 4 -15 18 -22 -3
-18 -27 5 -17 16 -22 16 -27 5 -3 -8 -12 -12 -20 -9 -8 3 -12 12 -9 20 6 16
51 19 73 4z m-2665 -10 c-3 -5 -14 -10 -23 -10 -15 0 -15 2 -2 10 20 13 33 13
25 0z m3254 -24 c-12 -26 -29 -35 -29 -16 0 6 5 10 12 10 6 0 8 3 5 7 -4 3 -2
12 5 20 16 20 20 9 7 -21z m-3697 -17 c-5 -45 -12 -46 -17 -2 -2 23 2 32 20
43 0 0 -1 -18 -3 -41z m2503 31 c-3 -5 -14 -10 -23 -9 -14 0 -13 2 3 9 27 11
27 11 20 0z m-2862 -23 c7 4 5 -1 -3 -11 -13 -17 -14 -17 -21 1 -11 27 -10 40
2 20 6 -10 15 -14 22 -10z m2097 13 c0 -5 -2 -10 -4 -10 -3 0 -8 5 -11 10 -3
6 -1 10 4 10 6 0 11 -4 11 -10z m2250 -7 c0 -13 -29 -32 -35 -23 -4 6 -16 8
-28 4 -26 -8 -17 4 15 21 21 11 48 10 48 -2z m-4402 -1 c6 -1 12 -7 12 -13 0
-5 -4 -8 -9 -4 -5 3 -17 -2 -25 -11 -19 -18 -22 -4 -3 15 10 11 8 13 -10 8
-13 -3 -25 -2 -28 2 -4 7 20 8 63 3z m2592 -1 c0 -5 -16 -11 -35 -13 -41 -5
-48 9 -7 15 15 2 30 5 35 6 4 0 7 -3 7 -8z m-2954 -28 c-7 -7 -26 7 -26 19 0
6 6 6 15 -2 9 -7 13 -15 11 -17z m64 12 c-6 -8 -9 -19 -5 -25 6 -10 -22 -27
-31 -18 -5 5 34 58 43 58 3 0 0 -7 -7 -15z m475 -5 c-3 -5 -12 -7 -20 -3 -21
7 -19 13 6 13 11 0 18 -4 14 -10z m533 -18 c2 -7 -1 -12 -7 -12 -6 0 -11 5
-11 10 0 6 -7 10 -15 10 -8 0 -15 4 -15 10 0 13 43 -4 48 -18z m2511 7 c-9 -5
-10 -9 -2 -9 6 0 9 -9 6 -20 -5 -20 -36 -35 -52 -26 -5 4 -11 1 -13 -4 -4 -12
-27 -18 -70 -19 -18 -1 -28 -6 -28 -16 0 -8 -6 -15 -14 -15 -8 0 -23 -3 -33
-6 -10 -4 4 14 30 39 32 30 54 44 64 40 11 -4 14 -2 9 5 -4 7 -2 12 4 12 6 0
8 5 4 11 -5 8 -1 8 14 0 16 -9 24 -8 36 5 9 8 16 12 16 8 0 -5 5 -3 12 4 6 6
15 9 21 5 5 -3 3 -9 -4 -14z m971 17 c0 -2 -7 -6 -15 -10 -8 -3 -15 -1 -15 4
0 6 7 10 15 10 8 0 15 -2 15 -4z m-1753 -12 c-3 -3 -12 -4 -19 -1 -8 3 -5 6 6
6 11 1 17 -2 13 -5z m-660 -10 c-3 -3 -12 -4 -19 -1 -8 3 -5 6 6 6 11 1 17 -2
13 -5z m-1707 -13 c0 -12 -20 -25 -27 -18 -7 7 6 27 18 27 5 0 9 -4 9 -9z
m3367 3 c-3 -3 -12 -4 -19 -1 -8 3 -5 6 6 6 11 1 17 -2 13 -5z m733 -4 c0 -5
-7 -10 -15 -10 -8 0 -15 -5 -15 -12 0 -6 -2 -9 -5 -6 -3 3 -3 13 1 22 7 17 34
22 34 6z m-3965 -10 c5 -8 11 -7 21 1 11 9 14 8 14 -5 0 -10 4 -15 8 -12 4 2
9 -4 9 -15 1 -10 -2 -19 -8 -19 -5 0 -9 5 -9 11 0 5 -5 7 -11 3 -8 -4 -9 -25
-5 -60 6 -55 -7 -75 -18 -29 -4 14 -11 25 -17 25 -6 0 -3 7 5 16 9 8 16 23 15
32 0 11 -2 12 -6 4 -2 -6 -10 -9 -15 -6 -7 4 -8 2 -4 -5 5 -7 -1 -20 -15 -32
-18 -16 -19 -19 -5 -19 9 0 14 -5 11 -10 -9 -15 -38 9 -31 25 2 7 0 17 -5 22
-7 7 -6 15 4 24 15 15 17 21 17 44 0 17 35 21 45 5z m501 -26 c-2 -6 1 -17 7
-23 8 -8 8 -11 -1 -11 -7 0 -15 8 -18 18 -3 9 -10 25 -15 35 -8 16 -7 16 11 5
11 -7 18 -18 16 -24z m2560 8 c-17 -16 -18 -16 -5 5 7 12 15 20 18 17 3 -2 -3
-12 -13 -22z m-2403 11 c-7 -2 -19 -2 -25 0 -7 3 -2 5 12 5 14 0 19 -2 13 -5z
m1867 -7 c0 -3 -4 -8 -10 -11 -5 -3 -10 -1 -10 4 0 6 5 11 10 11 6 0 10 -2 10
-4z m290 -6 c0 -5 -8 -10 -17 -10 -15 0 -16 2 -3 10 19 12 20 12 20 0z m1140
-10 c0 -5 -5 -10 -11 -10 -5 0 -7 5 -4 10 3 6 8 10 11 10 2 0 4 -4 4 -10z
m213 -14 c4 -10 1 -13 -9 -9 -15 6 -19 23 -5 23 5 0 11 -7 14 -14z m-4035 -18
c2 -10 -2 -18 -8 -18 -6 0 -8 5 -4 12 5 8 2 9 -10 5 -9 -4 -15 -3 -11 2 3 5
-1 12 -7 15 -7 3 -2 4 12 3 15 -1 26 -9 28 -19z m2617 -16 c-6 -6 -40 14 -43
26 -2 9 5 7 22 -5 13 -10 23 -19 21 -21z m240 6 c-38 -10 -63 -2 -46 15 9 9
14 9 21 -3 8 -13 10 -12 10 3 0 15 3 16 23 6 22 -12 22 -13 -8 -21z m-3460 12
c-3 -5 -11 -10 -16 -10 -6 0 -7 5 -4 10 3 6 11 10 16 10 6 0 7 -4 4 -10z
m1119 -3 c15 -11 11 -13 -28 -12 -34 0 -42 3 -34 13 13 16 39 15 62 -1z m2036
-8 c0 -4 -7 -6 -15 -3 -8 4 -15 10 -15 15 0 4 7 6 15 3 8 -4 15 -10 15 -15z
m1240 1 c-6 -11 -12 -20 -14 -20 -3 0 -1 23 3 38 1 1 6 2 11 2 7 0 7 -6 0 -20z
m30 -2 c0 -16 -3 -19 -11 -11 -6 6 -8 16 -5 22 11 17 16 13 16 -11z m-3880 -9
c0 -6 -4 -7 -10 -4 -5 3 -10 11 -10 16 0 6 5 7 10 4 6 -3 10 -11 10 -16z m160
11 c-8 -5 -11 -10 -7 -10 5 0 5 -5 2 -10 -4 -7 -13 -6 -27 1 -23 12 -13 24 24
26 18 2 20 0 8 -7z m1738 -4 c-7 -8 -15 -12 -17 -11 -5 6 10 25 20 25 5 0 4
-6 -3 -14z m1176 5 c-8 -8 -43 -8 -38 0 2 4 13 7 24 6 10 -1 17 -3 14 -6z
m1002 -3 c5 -8 2 -9 -9 -5 -10 3 -17 2 -17 -3 0 -13 -37 -13 -44 -1 -4 5 2 7
13 4 10 -3 22 0 25 6 9 14 23 14 32 -1z m-4489 -20 c-3 -8 -6 -5 -6 6 -1 11 2
17 5 13 3 -3 4 -12 1 -19z m1084 11 c11 -5 17 -15 13 -20 -4 -6 -10 -4 -17 5
-7 8 -23 17 -37 19 -24 4 -24 4 -2 6 13 0 32 -4 43 -10z m667 -2 c15 6 15 5 2
-11 -8 -11 -16 -14 -18 -7 -2 6 -12 2 -25 -9 -13 -12 -24 -17 -30 -11 -13 13
1 31 24 31 10 0 19 6 20 13 0 9 2 9 5 0 3 -7 13 -9 22 -6z m1232 3 c0 -5 -5
-10 -11 -10 -5 0 -7 5 -4 10 3 6 8 10 11 10 2 0 4 -4 4 -10z m135 0 c3 -5 1
-10 -4 -10 -6 0 -11 5 -11 10 0 6 2 10 4 10 3 0 8 -4 11 -10z m142 4 c-3 -3
-12 -4 -19 -1 -8 3 -5 6 6 6 11 1 17 -2 13 -5z m1133 2 c0 -2 -9 -6 -20 -9
-11 -3 -18 -1 -14 4 5 9 34 13 34 5z m-4543 -12 c-3 -3 -12 -4 -19 -1 -8 3 -5
6 6 6 11 1 17 -2 13 -5z m4163 -11 c0 -15 -2 -16 -10 -3 -8 12 -10 12 -10 1 0
-8 -3 -12 -6 -8 -8 7 4 27 17 27 5 0 9 -8 9 -17z m520 13 c0 -3 -4 -8 -10 -11
-5 -3 -10 -1 -10 4 0 6 5 11 10 11 6 0 10 -2 10 -4z m-4715 -26 c8 -13 -5 -13
-25 0 -13 8 -13 10 2 10 9 0 20 -4 23 -10z m1337 -10 c7 -11 18 -20 25 -20 7
0 13 -6 13 -12 0 -9 4 -8 10 2 8 13 10 12 10 -2 0 -10 -2 -18 -6 -18 -13 0
-84 46 -89 58 -7 20 24 14 37 -8z m-612 -16 c0 -22 -16 -17 -17 6 -1 11 2 18
8 15 5 -4 9 -13 9 -21z m729 23 c-2 -1 -13 -9 -24 -17 -19 -14 -19 -14 -6 3 7
9 18 17 24 17 6 0 8 -1 6 -3z m3108 -29 c-3 -7 -5 -2 -5 12 0 14 2 19 5 13 2
-7 2 -19 0 -25z m-4601 10 c4 -6 3 -8 -3 -5 -6 4 -19 0 -29 -8 -23 -18 -37
-19 -32 -3 3 7 15 15 29 19 13 4 25 7 26 8 1 1 5 -4 9 -11z m1295 -41 c-11
-11 -11 -2 0 48 1 6 4 -1 6 -14 3 -13 0 -28 -6 -34z m3284 44 c3 -5 1 -12 -5
-16 -5 -3 -10 1 -10 9 0 18 6 21 15 7z m-2632 -15 c4 -10 1 -13 -9 -9 -7 3
-14 9 -14 14 0 14 17 10 23 -5z m2812 4 c3 -5 1 -10 -4 -10 -6 0 -11 5 -11 10
0 6 2 10 4 10 3 0 8 -4 11 -10z m-4085 -4 c0 -3 -4 -8 -10 -11 -5 -3 -10 -1
-10 4 0 6 5 11 10 11 6 0 10 -2 10 -4z m3880 -5 c0 -6 -4 -13 -10 -16 -5 -3
-10 1 -10 9 0 9 5 16 10 16 6 0 10 -4 10 -9z m-4025 -48 c-3 -27 -8 -63 -11
-82 -5 -36 -10 -48 -19 -40 -2 3 0 21 5 40 13 45 13 89 -1 89 -5 0 -8 4 -5 9
4 5 0 12 -6 15 -7 3 -3 3 10 0 12 -3 22 -1 22 5 0 6 3 11 6 11 3 0 2 -21 -1
-47z m238 15 c9 -31 2 -33 -11 -3 -6 14 -8 25 -3 25 5 0 11 -10 14 -22z m3773
-16 c-4 -3 -11 0 -16 8 -15 24 -11 33 6 15 9 -9 13 -19 10 -23z m-2541 1 l30
-28 -28 -3 c-18 -2 -32 -12 -39 -28 -6 -13 -18 -24 -25 -24 -8 0 -12 3 -10 8
23 44 37 84 32 92 -12 20 11 10 40 -17z m2655 18 c0 -15 -32 -23 -44 -11 -8 8
-6 9 5 5 10 -4 20 -2 24 4 8 13 15 14 15 2z m-3246 -10 c4 -5 -1 -8 -9 -7 -21
3 -31 16 -12 16 9 0 18 -4 21 -9z m47 -8 c7 -10 10 -15 5 -11 -5 4 -17 3 -26
-2 -15 -8 -17 -6 -13 10 7 25 16 25 34 3z m1186 -15 c-3 -7 -5 -2 -5 12 0 14
2 19 5 13 2 -7 2 -19 0 -25z m1483 22 c0 -5 -2 -10 -4 -10 -3 0 -8 5 -11 10
-3 6 -1 10 4 10 6 0 11 -4 11 -10z m-3566 -16 c3 -8 2 -12 -4 -9 -6 3 -10 10
-10 16 0 14 7 11 14 -7z m120 10 c20 -8 21 -34 2 -34 -7 0 -16 9 -19 20 -6 22
-5 23 17 14z m-654 -14 c0 -5 -2 -10 -4 -10 -3 0 -8 5 -11 10 -3 6 -1 10 4 10
6 0 11 -4 11 -10z m4707 -26 c-3 -3 -12 -4 -19 -1 -8 3 -5 6 6 6 11 1 17 -2
13 -5z m-3957 -132 c0 -82 3 -104 15 -108 8 -4 12 -10 9 -15 -3 -5 -9 -7 -13
-5 -4 3 -8 -9 -9 -26 0 -17 -4 -34 -9 -39 -4 -4 -9 40 -11 99 -2 59 -5 114 -8
124 -3 9 0 19 5 22 6 4 6 18 1 35 -4 16 -6 32 -2 35 14 15 22 -27 22 -122z
m1142 106 c-6 -6 -8 -18 -5 -27 4 -12 3 -13 -5 -2 -6 9 -12 10 -16 3 -4 -6
-13 -9 -21 -5 -8 3 -15 0 -15 -7 0 -6 -5 -8 -10 -5 -14 9 31 44 47 38 7 -3 13
2 13 12 0 9 5 13 11 9 7 -4 7 -10 1 -16z m165 0 c-3 -8 -6 -5 -6 6 -1 11 2 17
5 13 3 -3 4 -12 1 -19z m2490 -34 c-9 -9 -28 6 -21 18 4 6 10 6 17 -1 6 -6 8
-13 4 -17z m-2487 7 c0 -5 -7 -14 -15 -21 -12 -10 -15 -10 -15 2 0 8 3 18 7
21 9 10 23 9 23 -2z m2640 5 c0 -3 -4 -8 -10 -11 -5 -3 -10 -1 -10 4 0 6 5 11
10 11 6 0 10 -2 10 -4z m-1238 -30 c-16 -18 -16 -19 11 -12 22 5 28 4 24 -6
-2 -7 -14 -13 -26 -12 -11 0 -21 -3 -21 -8 0 -4 -7 -8 -15 -8 -8 0 -25 -5 -38
-11 -18 -8 -23 -17 -19 -33 4 -20 4 -20 -14 -3 -19 18 -18 19 5 38 13 10 22
19 20 20 -24 5 -51 4 -55 -3 -3 -4 -14 -13 -26 -19 -37 -20 -6 19 40 49 29 20
53 27 86 27 43 0 44 -1 28 -19z m-980 -28 c-6 -6 -7 0 -4 19 5 21 7 23 10 9 2
-10 0 -22 -6 -28z m65 20 c-3 -8 -6 -5 -6 6 -1 11 2 17 5 13 3 -3 4 -12 1 -19z
m2053 10 c0 -4 -7 -8 -15 -8 -8 0 -15 -5 -15 -11 0 -6 -7 -9 -15 -6 -8 4 -17
1 -21 -5 -5 -7 -2 -8 6 -3 8 5 11 4 6 -3 -4 -6 -13 -9 -20 -6 -8 3 -20 -3 -27
-13 -11 -14 -22 -17 -49 -13 l-35 5 45 19 c25 11 48 20 52 20 13 2 21 16 9 16
-7 0 -10 3 -7 8 6 10 86 10 86 0z m-3822 -100 c-2 -21 0 -38 4 -38 5 0 8 -5 8
-11 0 -8 -4 -8 -14 0 -10 9 -14 34 -14 84 0 64 1 68 10 37 5 -19 8 -51 6 -72z
m1795 42 c-3 -12 -8 -19 -11 -16 -5 6 5 36 12 36 2 0 2 -9 -1 -20z m1667 6 c0
-3 -4 -8 -10 -11 -5 -3 -10 -1 -10 4 0 6 5 11 10 11 6 0 10 -2 10 -4z m48 -18
c-3 -7 -15 -15 -28 -18 -13 -3 -24 -12 -26 -20 -1 -8 -5 -23 -9 -32 -5 -13 -2
-18 10 -18 15 0 15 -1 0 -17 -10 -9 -15 -26 -12 -40 3 -15 0 -23 -10 -23 -9 0
-12 7 -7 25 5 20 3 24 -9 19 -12 -4 -14 0 -10 18 3 13 10 29 16 36 5 7 7 15 4
18 -3 3 -12 -3 -19 -15 -7 -12 -16 -21 -20 -21 -13 0 -9 21 7 36 19 19 19 31
0 31 -8 0 -12 -3 -10 -7 2 -4 -7 -16 -20 -28 -14 -12 -27 -17 -30 -12 -8 13 4
32 15 25 5 -3 14 3 19 13 13 24 50 35 57 18 4 -10 13 -9 42 5 43 22 45 23 40
7z m-2375 -14 c23 -5 26 -8 16 -20 -10 -13 -14 -12 -29 1 -9 8 -30 15 -46 15
-16 0 -36 5 -44 11 -15 10 28 7 103 -7z m1541 0 c14 -5 13 -9 -5 -25 -12 -11
-26 -19 -31 -19 -4 0 -8 -7 -8 -15 0 -9 -6 -12 -16 -8 -12 5 -9 10 15 25 33
21 39 33 19 41 -9 4 -9 6 -1 6 6 1 19 -2 27 -5z m136 -19 c-9 -11 -15 -13 -20
-5 -5 7 -9 4 -13 -9 -3 -12 -13 -21 -24 -21 -15 0 -16 -2 -3 -10 12 -8 12 -10
-5 -11 l-20 0 20 -9 c18 -8 17 -9 -7 -9 -15 -1 -29 -5 -33 -11 -3 -5 -12 -7
-21 -3 -20 7 -54 -25 -48 -45 5 -15 4 -15 -5 -1 -6 10 -7 27 -1 45 5 19 9 22
9 10 1 -18 2 -18 20 -2 11 10 17 24 14 32 -3 9 1 14 12 14 9 0 14 4 11 9 -8
12 58 37 108 40 16 1 16 -1 6 -14z m864 0 c-4 -8 -8 -15 -10 -15 -2 0 -4 7 -4
15 0 8 4 15 10 15 5 0 7 -7 4 -15z m-529 -13 c0 -20 -18 -18 -21 1 -1 10 3 16
9 14 7 -2 12 -9 12 -15z m-3265 -22 c0 -11 -4 -20 -9 -20 -6 0 -9 9 -8 20 1
11 5 20 9 20 4 0 8 -9 8 -20z m3025 10 c3 -5 1 -10 -4 -10 -6 0 -11 5 -11 10
0 6 2 10 4 10 3 0 8 -4 11 -10z m695 2 c0 -5 -7 -9 -15 -9 -8 0 -12 4 -9 9 3
4 9 8 15 8 5 0 9 -4 9 -8z m302 -24 c-3 -14 -2 -19 6 -14 7 4 12 14 12 22 0 8
5 14 10 14 6 0 10 -8 10 -19 0 -23 -25 -46 -34 -32 -4 6 -12 9 -19 7 -7 -1 -9
-1 -4 1 4 3 7 13 7 24 0 10 4 19 9 19 5 0 7 -10 3 -22z m-1355 -30 c-3 -8 -6
-5 -6 6 -1 11 2 17 5 13 3 -3 4 -12 1 -19z m250 16 c-3 -3 -12 -4 -19 -1 -8 3
-5 6 6 6 11 1 17 -2 13 -5z m1033 -4 c0 -5 -5 -10 -11 -10 -5 0 -7 5 -4 10 3
6 8 10 11 10 2 0 4 -4 4 -10z m-201 -31 c-16 -10 -23 -4 -14 10 3 6 11 8 17 5
6 -4 5 -9 -3 -15z m-29 1 c0 -5 -2 -10 -4 -10 -3 0 -8 5 -11 10 -3 6 -1 10 4
10 6 0 11 -4 11 -10z m234 4 c9 -3 16 -14 16 -23 0 -25 -29 -61 -48 -61 -15 0
-15 2 -2 10 13 8 13 11 1 19 -8 5 -11 16 -8 25 7 18 27 22 27 6 0 -5 -5 -10
-11 -10 -5 0 -7 -5 -3 -12 5 -8 11 -6 20 7 12 15 11 20 -4 31 -18 14 -13 18
12 8z m-1354 -14 c0 -5 -4 -10 -10 -10 -5 0 -10 5 -10 10 0 6 5 10 10 10 6 0
10 -4 10 -10z m-3526 -34 c-3 -8 -1 -17 5 -21 6 -3 11 -10 11 -16 0 -18 -16
-9 -33 20 -13 22 -14 30 -5 34 18 6 28 -1 22 -17z m3472 -5 c0 -15 -3 -17 -13
-9 -7 6 -10 14 -7 19 9 15 20 10 20 -10z m1044 4 c0 -8 -4 -15 -10 -15 -5 0
-7 7 -4 15 4 8 8 15 10 15 2 0 4 -7 4 -15z m-3611 1 c-15 -13 -49 -25 -49 -17
0 5 8 12 18 14 24 6 36 8 31 3z m2191 -6 c0 -5 -7 -7 -15 -4 -8 4 -15 8 -15
10 0 2 7 4 15 4 8 0 15 -4 15 -10z m337 -17 c1 -24 1 -25 -7 -8 -11 26 -12 35
-2 35 4 0 8 -12 9 -27z m988 7 c-10 -11 -21 -17 -26 -15 -4 3 -10 1 -14 -5
-10 -17 -27 -11 -23 7 3 15 27 26 72 32 5 0 1 -8 -9 -19z m-1402 -30 c-4 -15
-2 -19 10 -15 8 4 17 -1 20 -9 4 -10 1 -13 -9 -9 -12 5 -19 -13 -15 -39 2 -13
-17 -9 -21 4 -3 9 -9 8 -22 -5 -9 -9 -15 -21 -11 -26 3 -6 -1 -16 -8 -23 -8
-7 -12 -20 -9 -30 5 -21 18 -24 25 -5 2 6 8 9 12 5 5 -5 1 -16 -8 -26 -21 -23
-21 -30 1 -56 15 -18 15 -19 0 -8 -14 11 -17 10 -20 -8 -2 -11 -7 -20 -13 -20
-5 1 -9 8 -7 17 2 9 -1 12 -9 8 -7 -5 -10 -3 -7 6 3 8 14 13 24 12 10 -1 13 0
7 3 -7 3 -13 19 -13 35 0 16 -4 29 -10 29 -5 0 -10 16 -10 35 0 19 -4 35 -9
35 -5 0 -8 -8 -7 -17 0 -9 -10 -22 -24 -29 -32 -17 -42 -6 -12 13 16 11 22 25
22 50 0 26 5 36 20 40 11 3 20 11 20 19 0 7 5 16 12 20 8 5 9 2 5 -9 -4 -11
-1 -17 8 -17 8 0 15 7 15 15 0 15 30 36 41 29 4 -2 5 -13 2 -24z m62 20 c3 -5
1 -10 -4 -10 -6 0 -11 5 -11 10 0 6 2 10 4 10 3 0 8 -4 11 -10z m1542 4 c-3
-3 -12 -4 -19 -1 -8 3 -5 6 6 6 11 1 17 -2 13 -5z m-3900 -58 c-3 -30 -1 -58
4 -63 6 -6 13 -37 16 -69 l6 -59 -22 27 c-11 14 -21 30 -21 35 0 4 4 2 9 -5
12 -20 20 6 10 38 -7 24 -7 24 -8 3 -1 -13 -5 -23 -11 -23 -5 0 -10 -8 -10
-17 0 -18 -37 -63 -52 -63 -5 0 1 13 12 28 17 22 22 47 25 113 3 65 8 85 20
87 8 2 15 8 15 13 0 5 3 9 6 9 4 0 4 -24 1 -54z m3593 42 c0 -6 -3 -8 -7 -5
-3 4 -12 2 -19 -4 -15 -12 -48 -4 -40 9 8 13 66 12 66 0z m205 -19 c4 -11 4
-23 1 -26 -3 -4 1 -15 11 -25 21 -24 12 -23 -16 1 -17 15 -21 26 -16 42 5 16
4 19 -5 14 -9 -5 -11 -4 -6 3 11 18 24 14 31 -9z m-3494 -9 c26 0 25 -30 -2
-64 -12 -15 -19 -35 -16 -46 3 -10 -2 -28 -9 -39 -9 -12 -11 -22 -4 -26 16
-10 12 -36 -7 -51 -17 -12 -16 -13 5 -14 13 0 21 4 17 9 -3 5 -1 12 5 16 14 9
12 -19 -2 -34 -11 -10 -10 -12 1 -9 8 2 17 -6 19 -17 3 -15 1 -17 -9 -9 -19
15 -49 25 -48 16 4 -22 -2 -42 -12 -42 -8 0 -10 26 -4 93 8 114 8 110 20 119
6 5 6 8 -1 8 -8 0 -9 14 -3 46 10 52 20 75 27 56 2 -7 12 -12 23 -12z m3213 2
c-14 -9 -26 -42 -15 -42 5 0 14 7 21 15 7 8 17 15 22 15 6 0 5 -7 -2 -15 -7
-8 -9 -15 -4 -16 5 -1 -2 -4 -16 -8 -18 -5 -24 -13 -22 -29 2 -12 -2 -22 -8
-22 -7 0 -10 7 -6 15 7 20 -8 19 -28 -1 -26 -25 -18 -2 9 30 18 21 22 32 15
42 -8 8 -7 14 2 17 21 8 45 8 32 -1z m376 -2 c0 -5 -5 -10 -11 -10 -5 0 -7 5
-4 10 3 6 8 10 11 10 2 0 4 -4 4 -10z m-1160 -36 c0 -2 -7 -4 -15 -4 -8 0 -15
4 -15 10 0 5 7 7 15 4 8 -4 15 -8 15 -10z m715 6 c3 -6 -1 -7 -9 -4 -10 4 -16
0 -17 -10 -1 -16 -4 -28 -9 -43 -1 -5 -6 6 -9 22 -4 17 -6 33 -4 38 6 10 41 9
48 -3z m434 -11 c1 8 3 12 6 9 3 -3 2 -13 -1 -22 -5 -14 -9 -15 -15 -4 -5 7
-8 20 -8 28 0 10 3 8 9 -5 5 -12 9 -14 9 -6z m-1086 -3 c21 -16 22 -27 1 -19
-10 4 -15 1 -14 -8 1 -8 2 -25 1 -39 -1 -18 -4 -21 -10 -11 -5 7 -6 21 -4 31
3 10 0 21 -6 24 -15 10 -14 36 2 36 6 0 20 -7 30 -14z m587 -30 c0 -2 -7 -6
-15 -10 -8 -3 -15 -1 -15 4 0 6 7 10 15 10 8 0 15 -2 15 -4z m-2423 -58 c-3
-7 -5 -2 -5 12 0 14 2 19 5 13 2 -7 2 -19 0 -25z m1349 -14 c-4 -9 -9 -15 -11
-12 -3 3 -3 13 1 22 4 9 9 15 11 12 3 -3 3 -13 -1 -22z m51 -31 c-3 -10 -5 -4
-5 12 0 17 2 24 5 18 2 -7 2 -21 0 -30z m1121 -4 c-6 -4 -14 -12 -18 -19 -4
-7 -10 -8 -13 -3 -4 6 1 19 11 31 11 14 19 17 24 9 4 -6 2 -14 -4 -18z m-1148
17 c0 -2 -8 -10 -17 -17 -16 -13 -17 -12 -4 4 13 16 21 21 21 13z m-430 -26
c0 -5 -5 -10 -11 -10 -5 0 -7 5 -4 10 3 6 8 10 11 10 2 0 4 -4 4 -10z m440 -4
c0 -2 -7 -9 -15 -16 -13 -11 -14 -10 -9 4 5 14 24 23 24 12z m1090 -20 c0 -19
-57 -146 -66 -146 -3 0 -4 6 -1 14 3 8 3 17 -1 19 -4 2 -1 2 6 1 8 -3 11 7 8
31 -3 25 -1 32 9 29 7 -3 16 -1 20 5 3 6 -1 11 -10 11 -9 0 -13 5 -10 11 4 6
13 8 20 5 8 -3 11 2 8 15 -3 10 0 19 6 19 6 0 11 -6 11 -14z m-3424 -32 c-4
-14 -9 -24 -12 -21 -3 2 -2 17 2 31 3 15 9 25 11 22 3 -3 2 -17 -1 -32z m2234
-34 c0 -5 -4 -10 -9 -10 -6 0 -13 5 -16 10 -3 6 1 10 9 10 9 0 16 -4 16 -10z
m554 -32 c-4 -13 -6 -27 -5 -33 2 -5 4 -26 5 -46 1 -35 -6 -41 -31 -26 -6 4
-18 4 -27 1 -11 -4 -15 -2 -12 7 15 51 16 52 31 39 8 -7 13 -15 11 -19 -3 -4
-1 -13 4 -20 5 -8 7 0 7 23 -1 22 -6 36 -14 36 -20 0 -15 27 9 50 26 24 33 20
22 -12z m566 22 c0 -5 -2 -10 -4 -10 -3 0 -8 5 -11 10 -3 6 -1 10 4 10 6 0 11
-4 11 -10z m-150 -40 c0 -5 -4 -10 -10 -10 -5 0 -10 5 -10 10 0 6 5 10 10 10
6 0 10 -4 10 -10z m710 -37 c-11 -17 -11 -17 -6 0 3 11 0 20 -9 23 -8 4 -12
10 -9 15 3 5 12 2 20 -6 12 -11 13 -19 4 -32z m-41 23 c14 -16 4 -46 -14 -46
-7 0 -15 6 -18 13 -7 19 -16 4 -19 -32 -1 -18 -6 -35 -10 -37 -13 -8 -8 -58 8
-79 13 -17 16 -18 24 -5 7 11 8 5 5 -20 -3 -20 -2 -28 2 -18 7 14 11 14 26 4
14 -11 16 -24 12 -77 -4 -35 -8 -71 -11 -79 -4 -11 -2 -12 7 -3 6 6 14 33 17
59 4 37 7 44 13 29 4 -11 8 -32 8 -46 1 -15 8 -32 16 -39 22 -18 10 -28 -35
-27 -22 0 -43 -2 -46 -6 -4 -3 -13 0 -21 8 -17 17 -33 19 -33 5 0 -5 -7 -10
-16 -10 -11 0 -14 6 -10 23 3 12 3 17 0 10 -8 -18 -34 -4 -34 19 0 11 14 48
31 81 16 33 26 63 21 66 -16 10 -19 35 -10 69 6 22 6 38 -1 46 -8 9 -8 21 -1
37 8 20 10 21 9 4 -2 -39 3 -39 16 0 7 22 18 39 24 38 6 -2 10 0 10 5 -4 25
12 30 30 8z m-3849 -6 c0 -5 -8 -10 -17 -10 -15 0 -16 2 -3 10 19 12 20 12 20
0z m3287 -10 c-1 -21 -10 -18 -13 5 -1 8 2 15 6 15 5 0 8 -9 7 -20z m-177 -2
c0 -4 -4 -8 -9 -8 -6 0 -12 4 -15 8 -3 5 1 9 9 9 8 0 15 -4 15 -9z m-2390 -8
c-8 -5 -24 -9 -35 -9 l-20 0 20 9 c11 5 27 9 35 9 13 1 13 0 0 -9z m1960 -11
c0 -6 -4 -7 -10 -4 -5 3 -10 11 -10 16 0 6 5 7 10 4 6 -3 10 -11 10 -16z m448
-4 c-23 -27 -34 -33 -22 -12 14 23 26 37 35 37 5 0 -1 -11 -13 -25z m123 6
c-10 -18 -6 -31 11 -31 5 0 6 5 3 10 -3 6 0 10 9 10 11 0 12 -7 7 -27 -4 -16
-14 -28 -22 -28 -8 0 -18 -6 -24 -12 -12 -15 -31 -5 -36 19 -3 12 -8 15 -18 9
-11 -7 -9 -14 13 -34 22 -21 24 -26 12 -37 -19 -15 -37 -4 -29 17 4 10 2 14
-4 10 -6 -4 -17 0 -24 9 -9 11 -23 14 -43 11 -17 -3 -25 -3 -18 0 6 2 12 11
12 18 0 8 7 11 20 8 11 -3 20 -9 20 -15 0 -5 6 -3 14 4 8 7 12 16 9 20 -2 4 2
5 10 2 8 -3 18 0 22 5 3 6 10 9 15 6 5 -3 17 6 26 20 19 29 29 34 15 6z m93
-23 c-9 -14 -23 2 -17 18 4 12 8 13 14 3 4 -7 5 -17 3 -21z m-1014 12 c0 -5
-5 -10 -11 -10 -5 0 -7 5 -4 10 3 6 8 10 11 10 2 0 4 -4 4 -10z m-25 -19 c3
-5 2 -12 -3 -15 -5 -3 -9 1 -9 9 0 17 3 19 12 6z m1572 -13 c-3 -8 -6 -5 -6 6
-1 11 2 17 5 13 3 -3 4 -12 1 -19z m117 -8 c-4 -8 -6 -23 -6 -33 1 -10 -10
-22 -24 -27 -13 -5 -24 -16 -24 -25 0 -22 -18 -18 -25 5 -7 22 2 60 14 60 4 0
16 7 27 16 10 8 13 12 5 8 -8 -4 -12 -3 -8 2 3 5 15 10 27 10 15 0 19 -5 14
-16z m-3174 -10 c8 -5 11 -12 7 -17 -5 -4 -12 -2 -16 5 -4 8 -15 10 -26 6 -13
-5 -16 -4 -11 4 9 14 26 15 46 2z m2065 0 c3 -5 1 -10 -4 -10 -6 0 -11 5 -11
10 0 6 2 10 4 10 3 0 8 -4 11 -10z m-597 -20 c-7 -10 -14 -18 -15 -16 -6 6 9
36 18 36 5 0 4 -9 -3 -20z m352 -2 c0 -5 5 -6 11 -2 8 4 8 0 0 -15 -11 -20
-13 -20 -41 -6 -29 15 -36 26 -25 37 9 8 55 -3 55 -14z m1200 12 c0 -5 -5 -10
-12 -10 -6 0 -8 -3 -4 -7 4 -5 13 0 20 9 12 16 13 15 12 -10 -1 -16 -6 -29
-13 -29 -7 0 -10 4 -7 8 2 4 -5 10 -15 14 -12 4 -18 12 -14 21 6 16 33 19 33
4z m-4470 -30 c0 -11 -4 -20 -9 -20 -5 0 -7 9 -4 20 3 11 7 20 9 20 2 0 4 -9
4 -20z m3350 11 c0 -12 36 -25 82 -29 13 -2 14 -6 5 -26 -12 -26 -30 -26 -20
-1 6 18 -13 20 -20 3 -4 -10 -8 -10 -15 1 -11 16 -44 8 -40 -10 2 -6 -3 -14
-9 -16 -8 -3 -13 4 -13 16 0 13 9 25 22 30 15 5 18 10 9 15 -18 11 -41 -1 -41
-21 0 -10 -5 -25 -11 -33 -7 -11 -8 -4 -3 25 4 22 9 43 11 48 6 10 43 9 43 -2z
m-3328 -23 c-7 -7 -12 -8 -12 -2 0 14 12 26 19 19 2 -3 -1 -11 -7 -17z m48 8
c0 -3 -4 -8 -10 -11 -5 -3 -10 -1 -10 4 0 6 5 11 10 11 6 0 10 -2 10 -4z m280
-6 c0 -5 -2 -10 -4 -10 -3 0 -8 5 -11 10 -3 6 -1 10 4 10 6 0 11 -4 11 -10z
m1090 0 c0 -5 -7 -7 -15 -4 -8 4 -15 8 -15 10 0 2 7 4 15 4 8 0 15 -4 15 -10z
m-540 -30 c0 -12 -38 -23 -51 -14 -9 5 -7 11 5 20 18 13 46 9 46 -6z m2360
-12 c0 -7 -60 -8 -73 -1 -4 3 -3 11 3 18 8 10 17 10 40 2 17 -6 30 -15 30 -19z
m634 9 c10 -4 16 -13 13 -21 -3 -8 -1 -17 6 -19 9 -3 8 -8 -2 -18 -12 -12 -13
-12 -6 0 6 11 3 13 -13 9 -28 -8 -42 10 -35 45 3 16 8 25 12 20 3 -5 14 -13
25 -16z m-3785 -4 c-6 -7 -15 -13 -20 -13 -5 0 -6 6 -3 13 3 8 11 14 19 14 11
0 12 -4 4 -14z m841 -3 c6 -11 9 -20 7 -20 -2 0 -12 9 -22 20 -10 11 -13 20
-7 20 6 0 16 -9 22 -20z m2847 -2 c-3 -8 -6 -5 -6 6 -1 11 2 17 5 13 3 -3 4
-12 1 -19z m699 -15 c-7 -7 -26 7 -26 19 0 6 6 6 15 -2 9 -7 13 -15 11 -17z
m-3576 8 c0 -5 -7 -11 -15 -15 -15 -5 -20 5 -8 17 9 10 23 9 23 -2z m-40 -27
c0 -13 -3 -14 -15 -4 -16 14 -35 6 -35 -16 0 -8 -7 -14 -15 -14 -8 0 -15 5
-15 11 0 8 -5 8 -15 -1 -12 -10 -15 -9 -15 8 0 15 5 19 19 15 10 -3 22 0 25 6
12 18 66 14 66 -5z m3657 -26 c-3 -7 -5 -2 -5 12 0 14 2 19 5 13 2 -7 2 -19 0
-25z m-3476 -9 c13 -11 31 -18 41 -16 10 3 18 1 18 -4 0 -16 84 -52 130 -56
24 -2 46 -6 49 -8 4 -4 -60 -9 -80 -7 -20 3 9 -48 45 -79 36 -33 42 -35 54
-20 10 13 11 10 6 -24 -8 -46 -12 -55 -25 -55 -5 0 -9 11 -9 25 0 26 -41 62
-60 50 -5 -3 -13 2 -17 12 -3 10 -13 27 -22 37 -9 11 -10 16 -3 12 17 -10 15
19 -3 38 -8 8 -24 18 -35 21 -11 3 -20 10 -20 15 0 5 -15 17 -32 26 -41 21
-84 54 -71 54 6 0 21 -9 34 -21z m1409 11 c0 -5 -6 -7 -14 -4 -8 3 -16 -3 -19
-16 -5 -21 -27 -20 -27 1 0 6 4 8 9 5 5 -3 11 1 15 9 6 16 36 21 36 5z m1740
-24 c0 -5 -7 -3 -15 4 -8 7 -12 17 -9 22 7 10 24 -9 24 -26z m465 14 c-4 -6
-9 -23 -11 -37 -8 -43 -14 -40 -14 5 0 31 4 42 16 42 8 0 12 -5 9 -10z m-2445
-20 c0 -13 -20 -13 -40 0 -12 8 -9 10 13 10 15 0 27 -4 27 -10z m-1732 -35
c-9 -9 -30 14 -23 25 6 9 10 8 17 -4 6 -10 8 -19 6 -21z m2842 -60 c-16 -33
-30 -54 -30 -47 0 15 50 116 55 110 2 -2 -9 -30 -25 -63z m872 -26 c3 -63 9
-94 19 -101 11 -7 9 -9 -8 -5 -16 4 -23 0 -23 -10 0 -9 -6 -13 -14 -10 -8 3
-17 1 -20 -6 -4 -7 -4 0 -1 15 3 15 1 30 -5 33 -5 3 -10 11 -10 17 0 7 6 6 15
-2 13 -11 15 -8 15 14 0 23 -2 25 -19 16 -25 -13 -28 -13 -28 5 0 8 4 12 9 9
4 -3 8 7 8 21 0 15 4 24 10 20 6 -3 7 1 4 10 -6 16 20 65 35 65 5 0 11 -41 13
-91z m48 81 c0 -5 -4 -10 -10 -10 -5 0 -10 5 -10 10 0 6 5 10 10 10 6 0 10 -4
10 -10z m-795 -10 c3 -5 1 -10 -4 -10 -6 0 -11 5 -11 10 0 6 2 10 4 10 3 0 8
-4 11 -10z m-662 -6 c6 -6 -16 -34 -27 -34 -3 0 -6 9 -6 20 0 19 20 27 33 14z
m-303 -34 c0 -20 -5 -30 -15 -30 -8 0 -12 6 -10 15 3 8 7 22 10 30 7 25 15 17
15 -15z m-1120 -13 c25 -4 86 -7 135 -8 112 -2 132 -9 70 -24 -38 -10 -56 -10
-91 1 -24 7 -48 13 -52 13 -39 0 -119 16 -124 25 -13 19 -8 32 5 15 7 -9 32
-19 57 -22z m-200 -32 c34 -36 20 -40 -21 -5 -19 16 -38 29 -44 29 -5 1 -3 -4
5 -9 13 -8 13 -10 -1 -10 -11 0 -16 8 -16 24 0 22 1 22 26 10 15 -7 38 -25 51
-39z m-640 29 c0 -8 -4 -12 -10 -9 -5 3 -10 10 -10 16 0 5 5 9 10 9 6 0 10 -7
10 -16z m1130 6 c0 -5 -2 -10 -4 -10 -3 0 -8 5 -11 10 -3 6 -1 10 4 10 6 0 11
-4 11 -10z m-695 -22 c-4 -13 -19 -33 -33 -45 -29 -26 -29 -26 -37 -13 -4 6
-1 9 7 8 7 -2 12 5 12 14 -1 10 2 15 7 12 5 -3 14 -2 20 2 8 4 7 9 -2 15 -11
7 -10 9 4 9 9 0 17 5 17 10 0 6 3 10 6 10 3 0 2 -10 -1 -22z m3120 13 c7 -12
-12 -24 -25 -16 -11 7 -4 25 10 25 5 0 11 -4 15 -9z m-1760 -70 c-6 -21 -25
-29 -25 -11 0 6 5 10 10 10 6 0 10 8 10 17 0 9 3 14 6 10 3 -3 3 -15 -1 -26z
m2215 -41 c-7 -23 -17 -43 -22 -46 -10 -6 -11 41 -2 85 6 29 8 31 22 17 13
-13 14 -21 2 -56z m-3147 53 c-9 -3 -11 -17 -7 -44 5 -29 3 -39 -7 -39 -10 0
-11 -2 -2 -8 8 -5 8 -11 -2 -25 -10 -14 -14 -15 -23 -4 -26 31 5 128 40 126
10 0 10 -2 1 -6z m1018 -20 l1 -28 8 25 7 25 10 -25 c6 -14 7 -34 3 -45 -4
-11 -5 -26 -3 -32 3 -7 2 -13 -2 -13 -3 0 -11 13 -16 29 -7 20 -15 28 -25 24
-10 -4 -14 3 -14 24 0 48 29 63 31 16z m-255 -28 c0 -39 -19 -43 -24 -5 -3 17
7 35 24 40 0 0 0 -16 0 -35z m-1559 3 c-3 -8 -6 -5 -6 6 -1 11 2 17 5 13 3 -3
4 -12 1 -19z m1181 -9 c-26 -4 -60 -14 -76 -21 -20 -11 -33 -12 -45 -4 -12 8
-29 6 -64 -9 -26 -10 -74 -20 -105 -23 -51 -3 -58 -1 -59 15 -1 16 -2 16 -6 1
-7 -26 -23 -22 -23 6 l0 24 158 7 c86 3 177 10 202 14 25 4 50 5 55 2 6 -3
-11 -9 -37 -12z m89 15 c-3 -3 -12 -4 -19 -1 -8 3 -5 6 6 6 11 1 17 -2 13 -5z
m456 -67 c3 -34 4 -63 3 -65 -2 -1 -19 5 -39 13 -41 17 -48 34 -17 42 15 4 18
11 14 29 -8 31 2 55 19 48 9 -3 16 -27 20 -67z m-347 38 c15 -3 22 -13 22 -30
0 -22 -2 -23 -13 -9 -8 12 -14 14 -19 6 -4 -7 -12 -12 -17 -12 -6 0 -8 4 -5 8
3 5 -6 15 -19 22 -20 11 -32 11 -62 1 -21 -7 -42 -11 -46 -9 -5 2 -14 -8 -21
-21 -12 -21 -14 -21 -20 -6 -3 10 -4 20 -1 23 3 3 5 -1 6 -9 1 -8 4 -3 8 11 5
19 14 25 41 27 18 2 35 5 37 7 4 4 80 -2 109 -9z m244 -4 c0 -23 -16 -36 -25
-21 -9 14 1 40 15 40 5 0 10 -9 10 -19z m-104 -16 c18 -13 16 -14 -23 -15 -43
0 -67 15 -36 23 32 8 39 7 59 -8z m2304 5 c0 -5 -5 -10 -11 -10 -5 0 -7 5 -4
10 3 6 8 10 11 10 2 0 4 -4 4 -10z m396 -9 c8 7 14 7 19 -1 3 -5 0 -10 -7 -10
-9 0 -9 -3 2 -10 11 -7 7 -9 -18 -7 -18 1 -32 5 -32 10 0 4 0 12 0 19 0 9 3 9
12 0 8 -8 15 -8 24 -1z m-2646 -26 c0 -7 -7 -16 -16 -19 -23 -9 -34 -7 -34 4
0 6 8 10 18 8 11 -2 17 3 16 14 -1 10 2 15 7 12 5 -3 9 -11 9 -19z m-465 -4
c-12 -11 -95 -19 -95 -9 0 4 21 9 48 11 26 2 49 4 52 5 2 1 0 -2 -5 -7z m48 2
c-7 -2 -19 -2 -25 0 -7 3 -2 5 12 5 14 0 19 -2 13 -5z m837 -9 c-25 -7 -52
-13 -60 -13 -24 1 53 27 80 28 17 0 11 -5 -20 -15z m-1005 -14 c-11 -5 -38 -8
-60 -8 l-40 1 35 7 c19 4 46 8 60 8 23 1 23 0 5 -8z m-322 -22 c33 -18 109
-23 342 -21 137 1 202 -2 187 -8 -13 -5 -28 -7 -33 -3 -5 3 -9 -4 -9 -15 0
-22 -14 -28 -24 -12 -4 5 0 12 6 15 7 3 -9 3 -37 0 -68 -8 -69 -8 -75 -15 -10
-12 -70 -37 -64 -27 5 7 -29 9 -106 6 -90 -3 -114 -7 -124 -20 -11 -16 -14
-16 -28 -2 -11 11 -37 16 -88 17 l-72 2 -4 48 -3 47 55 0 c30 0 65 -5 77 -12z
m592 -26 c-3 -3 -11 0 -18 7 -9 10 -8 11 6 5 10 -3 15 -9 12 -12z m-1540 -42
c-3 -5 -10 -10 -16 -10 -5 0 -9 5 -9 10 0 6 7 10 16 10 8 0 12 -4 9 -10z m734
-28 c8 -2 18 3 22 10 7 10 9 8 9 -5 0 -10 4 -16 8 -13 4 2 8 -4 8 -14 0 -19
-19 -20 -55 -1 -25 14 -44 14 -36 1 3 -5 2 -10 -4 -10 -5 0 -9 9 -8 20 1 12 7
18 14 16 7 -3 13 0 13 7 0 7 3 8 8 2 4 -5 13 -11 21 -13z m-789 -6 c0 -3 -4
-8 -10 -11 -5 -3 -10 -1 -10 4 0 6 5 11 10 11 6 0 10 -2 10 -4z m1160 -16
c-20 -13 -60 -13 -60 0 0 6 17 10 38 10 27 0 33 -3 22 -10z m-365 -20 c3 -6
-1 -7 -9 -4 -18 7 -21 14 -7 14 6 0 13 -4 16 -10z m193 -65 c-3 -3 -9 2 -12
12 -6 14 -5 15 5 6 7 -7 10 -15 7 -18z m127 -5 c3 -5 2 -10 -4 -10 -5 0 -13 5
-16 10 -3 6 -2 10 4 10 5 0 13 -4 16 -10z"/>
<path d="M740 2730 c-9 -6 -10 -10 -3 -10 6 0 15 5 18 10 8 12 4 12 -15 0z"/>
<path d="M231 2031 c-8 -6 -9 -11 -3 -15 6 -3 14 -1 17 5 9 14 2 20 -14 10z"/>
<path d="M1415 2050 c-10 -11 -16 -22 -13 -25 8 -9 36 5 42 20 9 23 -10 26
-29 5z"/>
<path d="M3050 1189 c0 -5 5 -7 10 -4 6 3 10 8 10 11 0 2 -4 4 -10 4 -5 0 -10
-5 -10 -11z"/>
<path d="M4680 631 c0 -6 5 -13 10 -16 6 -3 10 1 10 9 0 9 -4 16 -10 16 -5 0
-10 -4 -10 -9z"/>
<path d="M4683 590 c6 -11 15 -20 19 -20 12 0 -3 28 -18 34 -11 4 -12 2 -1
-14z"/>
<path d="M4087 813 c-4 -3 -7 -13 -7 -22 1 -13 3 -13 11 2 11 19 8 33 -4 20z"/>
<path d="M4015 790 c-3 -5 -1 -10 4 -10 6 0 11 5 11 10 0 6 -2 10 -4 10 -3 0
-8 -4 -11 -10z"/>
<path d="M283 2829 c-7 -7 -7 -17 1 -35 12 -27 32 -34 21 -6 -5 9 -8 25 -9 35
0 20 1 20 -13 6z"/>
<path d="M1880 2805 c0 -8 4 -15 10 -15 5 0 7 7 4 15 -4 8 -8 15 -10 15 -2 0
-4 -7 -4 -15z"/>
<path d="M930 2802 c0 -5 7 -9 15 -9 8 0 12 4 9 9 -3 4 -9 8 -15 8 -5 0 -9 -4
-9 -8z"/>
<path d="M335 2769 c-4 -6 -5 -12 -2 -15 2 -3 7 2 10 11 7 17 1 20 -8 4z"/>
<path d="M1917 2769 c7 -7 15 -10 18 -7 3 3 -2 9 -12 12 -14 6 -15 5 -6 -5z"/>
<path d="M916 2714 c-3 -7 2 -10 15 -7 22 6 26 20 4 20 -8 0 -16 -6 -19 -13z"/>
<path d="M974 2698 c-14 -17 -15 -20 -2 -9 9 7 22 10 28 6 5 -3 10 1 10 9 0
22 -14 20 -36 -6z"/>
<path d="M1949 2718 c-6 -12 -5 -46 2 -43 4 3 7 14 6 25 -1 18 -5 25 -8 18z"/>
<path d="M1 2644 c0 -11 3 -14 6 -6 3 7 2 16 -1 19 -3 4 -6 -2 -5 -13z"/>
<path d="M783 2620 c-1 -11 2 -20 5 -20 4 0 8 9 9 20 1 11 -2 20 -5 20 -4 0
-8 -9 -9 -20z"/>
<path d="M360 2620 c-9 -6 -10 -10 -3 -10 6 0 15 5 18 10 8 12 4 12 -15 0z"/>
<path d="M52 2607 c-8 -10 -6 -13 9 -13 10 0 19 6 19 13 0 7 -4 13 -9 13 -5 0
-13 -6 -19 -13z"/>
<path d="M3520 2556 c14 -8 27 -12 29 -10 6 6 -1 11 -29 18 l-25 7 25 -15z"/>
<path d="M3326 2531 c-10 -11 -16 -26 -13 -33 4 -10 6 -10 6 1 1 8 8 23 18 33
9 10 14 18 11 18 -3 0 -13 -9 -22 -19z"/>
<path d="M3430 2520 c-23 -7 -23 -8 -3 -9 12 -1 25 4 28 9 3 6 5 10 3 9 -2 -1
-14 -5 -28 -9z"/>
<path d="M4893 2445 c-6 -14 -7 -23 -2 -19 13 8 31 44 22 44 -4 0 -13 -11 -20
-25z"/>
<path d="M4968 2463 c6 -2 18 -2 25 0 6 3 1 5 -13 5 -14 0 -19 -2 -12 -5z"/>
<path d="M436 2445 c4 -8 8 -15 10 -15 2 0 4 7 4 15 0 8 -4 15 -10 15 -5 0 -7
-7 -4 -15z"/>
<path d="M351 2434 c0 -11 3 -14 6 -6 3 7 2 16 -1 19 -3 4 -6 -2 -5 -13z"/>
<path d="M410 2440 c0 -5 5 -10 11 -10 5 0 7 5 4 10 -3 6 -8 10 -11 10 -2 0
-4 -4 -4 -10z"/>
<path d="M3218 2431 c-16 -16 -16 -17 2 -18 23 -2 32 8 22 24 -5 6 -13 4 -24
-6z"/>
<path d="M3792 2424 c10 -10 20 -16 22 -13 3 3 -5 11 -17 18 -21 13 -21 12 -5
-5z"/>
<path d="M4699 2420 c-15 -23 -104 -57 -177 -70 -42 -7 -43 -8 -12 -8 19 -1
74 7 122 17 48 10 91 15 94 12 4 -3 4 0 0 7 -4 6 -14 12 -22 12 -12 0 -12 4 2
25 9 14 14 25 11 25 -2 0 -11 -9 -18 -20z"/>
<path d="M3139 2399 c-7 -14 -14 -18 -18 -11 -4 6 -12 7 -20 3 -23 -15 60 -26
144 -20 86 6 84 10 -7 14 -31 1 -65 6 -75 10 -16 7 -15 9 7 15 23 8 24 8 3 9
-13 1 -27 -8 -34 -20z"/>
<path d="M4769 2412 c-13 -5 -14 -9 -5 -17 6 -5 17 -11 23 -12 57 -11 73 -12
73 -3 0 5 -4 10 -10 10 -5 0 -10 5 -10 11 0 6 7 8 17 5 10 -4 14 -3 9 1 -4 4
-18 8 -31 8 -16 1 -21 -4 -18 -15 4 -12 1 -11 -10 3 -16 19 -15 19 -38 9z"/>
<path d="M3048 2393 c7 -3 16 -2 19 1 4 3 -2 6 -13 5 -11 0 -14 -3 -6 -6z"/>
<path d="M3890 2396 c0 -2 7 -6 15 -10 8 -3 15 -1 15 4 0 6 -7 10 -15 10 -8 0
-15 -2 -15 -4z"/>
<path d="M3013 2373 c-29 -2 -53 -8 -53 -13 0 -5 -12 -11 -27 -13 -16 -3 -5
-4 22 -3 28 0 53 6 57 11 5 6 8 4 8 -5 0 -9 3 -11 8 -5 4 6 18 16 32 22 14 6
21 11 15 10 -5 0 -34 -2 -62 -4z"/>
<path d="M2478 2363 c7 -3 16 -2 19 1 4 3 -2 6 -13 5 -11 0 -14 -3 -6 -6z"/>
<path d="M2418 2353 c6 -2 18 -2 25 0 6 3 1 5 -13 5 -14 0 -19 -2 -12 -5z"/>
<path d="M3154 2345 c-18 -13 -16 -14 21 -13 26 0 31 2 16 5 -19 4 -21 7 -10
14 8 5 9 9 3 9 -5 0 -19 -7 -30 -15z"/>
<path d="M3220 2339 c0 -5 5 -7 10 -4 6 3 10 8 10 11 0 2 -4 4 -10 4 -5 0 -10
-5 -10 -11z"/>
<path d="M3284 2341 c3 -5 15 -7 26 -4 28 7 25 13 -6 13 -14 0 -23 -4 -20 -9z"/>
<path d="M3353 2343 c9 -2 23 -2 30 0 6 3 -1 5 -18 5 -16 0 -22 -2 -12 -5z"/>
<path d="M3628 2343 c18 -2 45 -2 60 0 15 2 0 4 -33 4 -33 0 -45 -2 -27 -4z"/>
<path d="M4205 2339 c-22 -3 -33 -7 -25 -8 11 -2 10 -5 -5 -12 -14 -6 -5 -7
30 -4 28 2 72 5 100 5 37 1 46 4 33 11 -10 5 -33 8 -52 6 -20 -2 -37 -1 -38 2
-2 3 -21 3 -43 0z"/>
<path d="M4393 2333 c9 -2 23 -2 30 0 6 3 -1 5 -18 5 -16 0 -22 -2 -12 -5z"/>
<path d="M3873 2316 c-46 -17 -54 -29 -14 -23 19 3 37 10 40 15 3 5 13 12 21
15 13 5 13 5 0 5 -8 0 -29 -6 -47 -12z"/>
<path d="M3948 2323 c6 -2 18 -2 25 0 6 3 1 5 -13 5 -14 0 -19 -2 -12 -5z"/>
<path d="M4568 2313 c7 -3 16 -2 19 1 4 3 -2 6 -13 5 -11 0 -14 -3 -6 -6z"/>
<path d="M3964 2298 c-4 -7 -3 -8 5 -4 6 4 19 2 27 -5 12 -9 17 -10 27 0 9 10
8 11 -5 6 -11 -4 -18 -2 -18 4 0 15 -27 14 -36 -1z"/>
<path d="M4058 2303 c7 -3 16 -2 19 1 4 3 -2 6 -13 5 -11 0 -14 -3 -6 -6z"/>
<path d="M3940 2291 c0 -9 -9 -12 -25 -9 -13 3 -22 1 -19 -3 7 -13 42 -11 49
2 4 6 4 13 1 16 -3 4 -6 1 -6 -6z"/>
<path d="M4193 2283 c9 -2 23 -2 30 0 6 3 -1 5 -18 5 -16 0 -22 -2 -12 -5z"/>
<path d="M3819 2263 c-13 -16 -12 -17 4 -4 16 13 21 21 13 21 -2 0 -10 -8 -17
-17z"/>
<path d="M4275 2245 c-26 -15 -41 -31 -43 -46 -2 -13 1 -19 5 -14 15 18 53 16
53 -3 0 -12 -3 -13 -8 -5 -5 8 -8 -2 -9 -23 -1 -26 2 -33 10 -25 17 17 29 13
23 -6 -3 -10 -2 -24 3 -32 9 -14 12 -6 27 82 7 41 27 57 71 57 26 1 27 1 8 12
-11 6 -23 16 -27 22 -4 6 -13 5 -24 -5 -13 -11 -18 -11 -21 -1 -6 17 -22 14
-68 -13z m75 -11 c0 -2 -9 -4 -20 -4 -11 0 -20 4 -20 9 0 5 9 7 20 4 11 -3 20
-7 20 -9z"/>
<path d="M3676 2245 c4 -8 8 -15 10 -15 2 0 4 7 4 15 0 8 -4 15 -10 15 -5 0
-7 -7 -4 -15z"/>
<path d="M3640 2241 c0 -7 -4 -10 -9 -7 -5 3 -12 -1 -15 -10 -5 -14 -9 -14
-23 -3 -12 10 -14 10 -9 2 4 -8 2 -13 -6 -14 -7 0 1 -5 17 -10 51 -15 92 14
59 41 -11 10 -14 10 -14 1z"/>
<path d="M3695 2207 c-22 -23 -25 -28 -10 -22 11 4 25 8 31 8 6 0 12 11 12 24
0 13 -1 22 -2 22 0 -1 -14 -15 -31 -32z"/>
<path d="M3746 2208 c3 -5 10 -6 15 -3 13 9 11 12 -6 12 -8 0 -12 -4 -9 -9z"/>
<path d="M3085 2201 c-32 -7 -23 -20 10 -14 11 2 47 7 80 12 l60 8 -60 0 c-33
1 -73 -2 -90 -6z"/>
<path d="M2670 2190 c0 -5 5 -10 11 -10 5 0 7 5 4 10 -3 6 -8 10 -11 10 -2 0
-4 -4 -4 -10z"/>
<path d="M2705 2190 c-4 -7 226 -1 235 7 2 2 -49 3 -113 2 -64 0 -119 -4 -122
-9z"/>
<path d="M3345 2190 c-3 -6 1 -7 9 -4 18 7 21 14 7 14 -6 0 -13 -4 -16 -10z"/>
<path d="M2488 2183 c6 -2 18 -2 25 0 6 3 1 5 -13 5 -14 0 -19 -2 -12 -5z"/>
<path d="M3307 2183 c-4 -3 -7 -11 -7 -17 0 -6 5 -5 12 2 6 6 9 14 7 17 -3 3
-9 2 -12 -2z"/>
<path d="M2228 2173 c7 -3 16 -2 19 1 4 3 -2 6 -13 5 -11 0 -14 -3 -6 -6z"/>
<path d="M2968 2158 c5 -5 16 -8 23 -6 8 3 3 7 -10 11 -17 4 -21 3 -13 -5z"/>
<path d="M3666 2145 c-11 -8 -15 -15 -9 -15 6 0 16 7 23 15 16 19 11 19 -14 0z"/>
<path d="M4150 2151 c0 -6 4 -13 10 -16 6 -3 7 1 4 9 -7 18 -14 21 -14 7z"/>
<path d="M2907 2143 c-10 -10 -8 -23 4 -23 5 0 8 4 5 9 -4 5 0 12 6 14 7 3 8
6 2 6 -6 1 -14 -2 -17 -6z"/>
<path d="M4125 2120 c11 -17 -6 -70 -21 -70 -9 0 -12 5 -8 12 4 7 3 8 -4 4
-19 -11 -15 -36 5 -29 11 4 14 3 9 -5 -4 -7 -3 -12 3 -12 5 0 12 13 16 30 4
16 11 32 16 35 14 9 11 32 -7 39 -9 3 -12 2 -9 -4z"/>
<path d="M3285 2110 c3 -5 11 -10 16 -10 6 0 7 5 4 10 -3 6 -11 10 -16 10 -6
0 -7 -4 -4 -10z"/>
<path d="M2850 2100 c-9 -6 -10 -10 -3 -10 6 0 15 5 18 10 8 12 4 12 -15 0z"/>
<path d="M2805 2090 c-16 -7 -17 -9 -3 -9 9 -1 20 4 23 9 7 11 7 11 -20 0z"/>
<path d="M2742 2065 c-36 -19 -46 -32 -33 -40 6 -3 10 -1 9 6 -2 6 3 14 10 16
7 3 11 0 10 -5 -2 -6 2 -10 7 -10 6 0 9 4 8 9 -2 5 2 9 8 9 5 0 8 4 5 9 -4 5
0 12 6 14 7 3 9 5 3 5 -5 0 -21 -6 -33 -13z"/>
<path d="M4210 2056 c-6 -9 -10 -21 -7 -28 4 -9 6 -7 6 4 1 9 7 18 14 21 6 2
9 7 6 11 -3 4 -12 0 -19 -8z"/>
<path d="M2513 2053 c-13 -2 -23 -8 -23 -13 0 -10 38 -1 46 11 3 5 4 8 2 8 -2
-1 -13 -4 -25 -6z"/>
<path d="M2665 2020 c-3 -5 -2 -10 4 -10 5 0 13 5 16 10 3 6 2 10 -4 10 -5 0
-13 -4 -16 -10z"/>
<path d="M4076 2005 c4 -8 11 -15 16 -15 6 0 5 6 -2 15 -7 8 -14 15 -16 15 -2
0 -1 -7 2 -15z"/>
<path d="M2518 1843 c6 -2 18 -2 25 0 6 3 1 5 -13 5 -14 0 -19 -2 -12 -5z"/>
<path d="M2305 1830 c3 -5 15 -10 26 -10 10 0 19 5 19 10 0 6 -12 10 -26 10
-14 0 -23 -4 -19 -10z"/>
<path d="M2230 1812 c0 -5 7 -9 15 -9 8 0 15 4 15 9 0 4 -7 8 -15 8 -8 0 -15
-4 -15 -8z"/>
<path d="M4765 1759 c-4 -6 -5 -12 -2 -15 2 -3 7 2 10 11 7 17 1 20 -8 4z"/>
<path d="M4805 1691 c3 -5 -3 -12 -12 -14 -14 -4 -13 -5 5 -6 13 -1 22 5 22
14 0 8 -5 15 -11 15 -5 0 -8 -4 -4 -9z"/>
<path d="M4724 1615 c-18 -13 -18 -14 4 -8 12 3 25 9 28 14 8 14 -10 11 -32
-6z"/>
<path d="M4510 1601 c0 -5 5 -13 10 -16 6 -3 10 -2 10 4 0 5 -4 13 -10 16 -5
3 -10 2 -10 -4z"/>
<path d="M4825 1600 c3 -5 8 -10 11 -10 2 0 4 5 4 10 0 6 -5 10 -11 10 -5 0
-7 -4 -4 -10z"/>
<path d="M4686 1586 c4 -11 2 -21 -7 -27 -8 -5 -9 -9 -4 -9 6 0 17 5 25 10 13
8 13 12 -3 27 -17 17 -18 17 -11 -1z"/>
<path d="M4343 1584 c-7 -3 -9 -12 -6 -20 7 -18 -16 -47 -32 -40 -6 2 -12 -2
-12 -10 0 -10 6 -13 16 -8 9 3 23 7 31 9 11 1 14 12 12 35 -2 21 0 30 7 25 6
-3 11 -1 11 4 0 12 -7 13 -27 5z"/>
<path d="M4743 1575 c0 -8 7 -15 15 -15 7 0 12 5 10 12 -6 18 -25 21 -25 3z"/>
<path d="M4600 1572 c0 -7 -6 -10 -12 -7 -7 4 -4 -1 6 -9 24 -19 32 -14 17 11
-6 11 -11 13 -11 5z"/>
<path d="M5090 1530 c0 -5 5 -10 11 -10 5 0 7 5 4 10 -3 6 -8 10 -11 10 -2 0
-4 -4 -4 -10z"/>
<path d="M4480 1352 c0 -6 -7 -9 -17 -5 -10 4 -14 2 -10 -5 4 -6 -1 -13 -10
-15 -14 -4 -14 -5 -2 -6 20 -1 56 25 46 35 -4 4 -7 2 -7 -4z"/>
<path d="M0 1340 c0 -4 11 -15 24 -23 22 -15 24 -15 19 3 -5 18 -43 36 -43 20z"/>
<path d="M4204 1322 c-6 -4 -14 -17 -18 -29 -5 -17 -3 -21 11 -19 10 2 19 10
21 20 5 24 -1 36 -14 28z"/>
<path d="M4245 1319 c-4 -6 -5 -12 -2 -15 2 -3 7 2 10 11 7 17 1 20 -8 4z"/>
<path d="M5098 1303 c7 -3 16 -2 19 1 4 3 -2 6 -13 5 -11 0 -14 -3 -6 -6z"/>
<path d="M5014 1288 c-3 -4 4 -8 15 -8 12 0 21 4 21 8 0 5 -7 9 -15 9 -9 0
-18 -4 -21 -9z"/>
<path d="M5090 1280 c-13 -8 -13 -10 2 -10 9 0 20 5 23 10 8 13 -5 13 -25 0z"/>
<path d="M4058 1249 c-10 -5 -18 -7 -18 -4 0 3 -10 0 -22 -7 l-23 -12 25 -6
c26 -6 82 18 74 32 -7 10 -15 10 -36 -3z"/>
<path d="M4975 1250 c-3 -5 -1 -10 4 -10 6 0 11 5 11 10 0 6 -2 10 -4 10 -3 0
-8 -4 -11 -10z"/>
<path d="M115 1231 c-3 -5 -1 -12 5 -16 5 -3 10 1 10 9 0 18 -6 21 -15 7z"/>
<path d="M4087 1216 c-4 -10 -1 -13 8 -9 8 3 12 9 9 14 -7 12 -11 11 -17 -5z"/>
<path d="M4972 1207 c11 -8 15 -21 12 -35 -4 -11 1 -31 10 -44 20 -28 21 -45
2 -29 -11 9 -15 7 -19 -9 -6 -24 10 -26 35 -3 10 9 18 11 18 6 0 -6 9 -13 19
-16 15 -3 19 -12 17 -32 -2 -15 -7 -30 -13 -33 -6 -5 -5 -18 3 -37 11 -26 13
-28 20 -11 4 11 2 21 -7 26 -7 5 -10 12 -6 17 5 4 12 2 16 -5 4 -7 14 -10 22
-7 16 6 24 85 8 85 -6 0 -7 4 -4 10 4 6 -1 7 -11 3 -13 -5 -15 -3 -9 8 7 11 6
12 -6 3 -27 -21 -53 0 -70 57 -12 38 -22 55 -35 57 -18 3 -18 2 -2 -11z m119
-161 c-9 -11 -9 -15 1 -19 9 -4 9 -6 1 -6 -6 -1 -15 4 -18 9 -8 12 2 30 17 30
7 0 7 -5 -1 -14z"/>
<path d="M47 1179 c4 -13 8 -18 11 -10 2 7 -1 18 -6 23 -8 8 -9 4 -5 -13z"/>
<path d="M4930 1190 c0 -5 5 -10 11 -10 5 0 7 5 4 10 -3 6 -8 10 -11 10 -2 0
-4 -4 -4 -10z"/>
<path d="M5026 1183 c-13 -13 -6 -35 9 -29 8 3 16 1 16 -4 1 -6 2 -16 3 -22 1
-7 10 -11 21 -10 26 5 33 12 12 12 -24 0 -21 17 3 25 11 3 20 11 20 16 0 18
-40 9 -40 -8 -1 -16 -3 -15 -19 4 -10 12 -21 19 -25 16z"/>
<path d="M4853 1158 c-2 -16 1 -18 10 -9 7 7 8 14 1 21 -6 6 -10 2 -11 -12z"/>
<path d="M4935 1142 c-12 -12 -4 -20 15 -15 11 3 20 9 20 12 0 9 -27 10 -35 3z"/>
<path d="M30 1130 c0 -5 4 -10 9 -10 6 0 13 5 16 10 3 6 -1 10 -9 10 -9 0 -16
-4 -16 -10z"/>
<path d="M129 1123 c-1 -4 -1 -11 -1 -15 1 -3 -5 -12 -13 -18 -8 -7 -15 -22
-14 -34 0 -15 2 -16 6 -6 3 8 9 17 12 20 16 14 30 50 21 55 -6 3 -11 3 -11 -2z"/>
<path d="M4103 1096 c6 -13 17 -21 24 -19 10 4 10 9 3 18 -5 6 -7 15 -3 18 3
4 -3 7 -14 7 -19 0 -20 -3 -10 -24z"/>
<path d="M153 1089 c-3 -10 -9 -19 -14 -19 -5 0 -9 -6 -9 -12 -1 -15 -70 -62
-70 -48 0 6 0 13 0 18 0 4 5 7 12 7 6 0 13 7 15 15 3 9 1 11 -4 5 -9 -11 -33
-18 -33 -9 0 3 5 15 11 26 9 16 8 19 -3 16 -7 -3 -13 -19 -14 -36 -1 -17 -7
-39 -15 -49 -13 -16 -12 -17 3 -5 14 11 17 9 26 -15 8 -22 11 -24 11 -8 1 15
3 17 10 6 7 -11 13 -8 26 13 10 15 24 25 30 22 8 -3 11 2 8 15 -3 10 0 19 6
19 6 0 11 7 11 16 0 8 4 13 9 10 5 -3 14 0 20 8 9 11 7 15 -10 19 -15 4 -23 0
-26 -14z"/>
<path d="M4473 1093 c-21 -8 -15 -23 10 -23 12 0 27 -4 33 -8 12 -8 25 -52 16
-52 -4 0 -8 -12 -9 -27 -1 -24 0 -25 9 -9 6 10 11 33 12 50 1 28 5 32 41 37
29 4 33 7 15 9 -14 1 -31 2 -39 1 -7 -2 -10 2 -6 8 4 7 -4 11 -19 11 -13 0
-30 2 -38 4 -7 3 -19 2 -25 -1z"/>
<path d="M190 1054 c0 -14 -4 -22 -10 -19 -5 3 -10 2 -10 -2 0 -13 22 -33 37
-33 19 0 17 66 -2 74 -11 4 -15 -2 -15 -20z"/>
<path d="M4945 1051 c3 -18 5 -37 5 -42 0 -5 7 -9 15 -9 8 0 15 -7 15 -15 0
-8 5 -15 10 -15 12 0 13 -57 1 -62 -4 -1 6 -10 24 -18 19 -10 32 -12 32 -5 0
5 2 15 3 20 2 6 -1 21 -7 35 -6 14 -15 34 -18 45 -5 13 -9 15 -12 8 -3 -7 -9
-13 -14 -13 -6 0 -7 5 -4 10 3 6 1 10 -4 10 -6 0 -11 7 -11 16 0 8 4 13 9 9 5
-3 12 -1 16 4 3 6 -3 15 -14 20 -14 8 -21 8 -24 -2 -3 -7 -9 -2 -16 13 -11 24
-11 23 -6 -9z m80 -121 c3 -5 1 -10 -4 -10 -6 0 -11 5 -11 10 0 6 2 10 4 10 3
0 8 -4 11 -10z m18 -25 c-3 -9 -8 -14 -10 -11 -3 3 -2 9 2 15 9 16 15 13 8 -4z"/>
<path d="M3744 1051 c5 -8 56 -3 56 5 0 2 -14 4 -31 4 -16 0 -28 -4 -25 -9z"/>
<path d="M3880 1050 c-12 -8 -11 -10 8 -10 12 0 22 5 22 10 0 13 -11 13 -30 0z"/>
<path d="M4146 1029 c-23 -22 -17 -33 11 -22 13 5 18 14 14 24 -5 14 -8 14
-25 -2z"/>
<path d="M10 1024 c0 -8 5 -12 10 -9 6 4 8 11 5 16 -9 14 -15 11 -15 -7z"/>
<path d="M4076 1025 c4 -8 8 -15 10 -15 2 0 4 7 4 15 0 8 -4 15 -10 15 -5 0
-7 -7 -4 -15z"/>
<path d="M4780 1030 c0 -5 7 -7 15 -4 8 4 15 8 15 10 0 2 -7 4 -15 4 -8 0 -15
-4 -15 -10z"/>
<path d="M4865 1019 c-10 -15 3 -25 16 -12 7 7 7 13 1 17 -6 3 -14 1 -17 -5z"/>
<path d="M3950 1010 c0 -5 5 -10 10 -10 6 0 10 5 10 10 0 6 -4 10 -10 10 -5 0
-10 -4 -10 -10z"/>
<path d="M4100 1010 c0 -5 5 -10 10 -10 6 0 10 5 10 10 0 6 -4 10 -10 10 -5 0
-10 -4 -10 -10z"/>
<path d="M4918 1013 c6 -2 9 -10 6 -15 -4 -7 -2 -8 4 -4 18 11 14 26 -5 25
-11 0 -13 -3 -5 -6z"/>
<path d="M4850 980 c0 -5 5 -10 11 -10 5 0 7 5 4 10 -3 6 -8 10 -11 10 -2 0
-4 -4 -4 -10z"/>
<path d="M4943 964 c0 -15 -7 -31 -15 -36 -9 -7 -7 -8 8 -3 18 5 22 2 20 -19
0 -13 -4 -22 -9 -19 -4 2 -6 -9 -5 -26 3 -38 11 -39 33 -5 13 20 14 28 5 40
-7 7 -10 20 -7 28 6 14 -13 66 -23 66 -3 0 -6 -12 -7 -26z"/>
<path d="M178 973 c7 -3 16 -2 19 1 4 3 -2 6 -13 5 -11 0 -14 -3 -6 -6z"/>
<path d="M211 956 c-13 -14 -21 -31 -18 -38 4 -10 6 -10 6 1 1 8 11 25 23 38
12 13 19 23 16 23 -2 0 -15 -11 -27 -24z"/>
<path d="M3791 941 c-9 -16 -7 -18 14 -18 21 0 23 2 14 18 -5 11 -12 19 -14
19 -2 0 -9 -8 -14 -19z"/>
<path d="M4502 934 c-10 -12 -10 -14 2 -14 17 0 30 16 19 23 -5 3 -14 -1 -21
-9z"/>
<path d="M40 856 c0 -8 4 -17 9 -20 5 -4 7 3 4 14 -6 23 -13 26 -13 6z"/>
<path d="M5090 849 c0 -5 5 -7 10 -4 6 3 10 8 10 11 0 2 -4 4 -10 4 -5 0 -10
-5 -10 -11z"/>
<path d="M4933 795 c0 -8 4 -15 9 -15 4 0 8 4 8 9 0 6 -4 12 -8 15 -5 3 -9 -1
-9 -9z"/>
<path d="M4190 785 c-11 -13 -8 -13 19 -4 35 12 40 19 12 19 -10 0 -24 -7 -31
-15z"/>
<path d="M4930 760 c-24 -8 -23 -8 8 -9 20 -1 31 3 27 9 -3 6 -7 10 -8 9 -1
-1 -13 -5 -27 -9z"/>
<path d="M5030 724 c0 -8 6 -11 15 -8 9 4 15 0 15 -7 0 -11 2 -11 10 1 5 8 12
11 16 8 9 -10 -4 -40 -15 -34 -5 3 -12 -1 -15 -10 -5 -13 -1 -15 20 -10 17 5
23 3 19 -4 -3 -5 -2 -10 4 -10 16 0 22 18 9 23 -10 4 -9 8 2 16 13 10 12 13
-5 24 -33 20 -75 26 -75 11z"/>
<path d="M175 689 c-11 -17 1 -21 15 -4 8 9 8 15 2 15 -6 0 -14 -5 -17 -11z"/>
<path d="M506 607 c3 -10 9 -15 12 -12 3 3 0 11 -7 18 -10 9 -11 8 -5 -6z"/>
<path d="M3870 609 c0 -6 -9 -9 -19 -6 -13 3 -18 1 -14 -9 2 -7 1 -19 -3 -26
-13 -21 -13 -36 1 -42 8 -3 16 5 19 20 5 20 11 24 29 19 22 -7 22 -7 2 10 -14
11 -16 18 -7 21 14 7 16 24 2 24 -5 0 -10 -5 -10 -11z"/>
<path d="M3900 611 c0 -10 19 -25 25 -20 1 2 -3 10 -11 17 -8 7 -14 8 -14 3z"/>
<path d="M3980 610 c0 -5 4 -10 9 -10 6 0 13 5 16 10 3 6 -1 10 -9 10 -9 0
-16 -4 -16 -10z"/>
<path d="M4035 594 c-13 -10 -32 -14 -52 -10 -23 3 -33 0 -38 -12 -5 -13 -4
-14 6 -5 8 8 18 9 28 3 19 -9 81 13 81 30 0 13 -1 13 -25 -6z"/>
<path d="M4116 538 c2 -13 1 -17 -2 -10 -5 10 -9 10 -20 1 -17 -14 -18 -26 -1
-26 7 0 25 -3 40 -7 32 -8 33 -4 10 35 -21 35 -33 38 -27 7z"/>
<path d="M3890 529 c0 -5 5 -7 10 -4 6 3 10 8 10 11 0 2 -4 4 -10 4 -5 0 -10
-5 -10 -11z"/>
<path d="M3948 533 c7 -3 16 -2 19 1 4 3 -2 6 -13 5 -11 0 -14 -3 -6 -6z"/>
<path d="M3898 487 c-32 -6 -58 -14 -58 -19 0 -5 5 -6 10 -3 6 3 10 2 10 -3 0
-6 -7 -12 -15 -16 -8 -3 -15 -12 -15 -21 0 -22 -43 -19 -93 6 -46 24 -59 38
-49 54 3 5 -1 4 -10 -2 -8 -7 -18 -9 -23 -5 -4 4 -2 -3 6 -15 11 -18 11 -25 1
-35 -16 -16 -15 -25 4 -32 10 -4 13 -2 8 6 -4 7 -3 8 5 4 6 -4 10 -15 9 -24
-2 -9 3 -16 9 -15 7 2 22 -16 33 -40 19 -38 19 -40 2 -18 -17 21 -20 21 -25 6
-9 -23 -9 -27 2 -20 5 3 12 1 15 -4 4 -5 -2 -8 -11 -7 -9 2 -19 8 -21 15 -3 9
-8 9 -17 1 -10 -8 -17 -1 -29 32 -14 40 -15 40 -10 8 6 -31 5 -33 -10 -21 -15
13 -16 11 -6 -14 13 -35 7 -41 -22 -21 -12 9 -28 16 -36 16 -18 0 -88 71 -96
98 -7 21 -12 22 -54 16 -26 -4 -58 -10 -72 -15 l-25 -7 25 -1 c27 -1 58 -17
49 -25 -3 -3 -20 -12 -38 -19 -29 -12 -37 -12 -63 0 -41 21 -44 11 -3 -11 30
-17 36 -17 63 -4 27 14 29 14 24 -4 -7 -28 -40 -32 -142 -15 -14 2 -17 2 -8 0
9 -2 22 -11 28 -19 10 -11 9 -14 -3 -14 -8 0 -14 -8 -13 -18 0 -9 -4 -16 -10
-15 -17 3 -24 -35 -8 -41 8 -3 14 -13 14 -23 0 -14 3 -14 20 5 15 16 33 22 68
23 55 2 107 6 107 9 0 8 85 7 90 0 4 -6 -3 -10 -15 -10 -12 0 -18 -4 -15 -10
3 -5 18 -10 32 -10 45 0 153 -22 148 -30 -2 -4 20 -6 51 -5 30 2 93 -5 139
-14 80 -16 85 -16 85 0 0 12 -6 16 -21 12 -32 -9 -359 45 -359 59 0 4 6 9 13
9 6 1 23 3 37 4 25 3 299 15 334 15 17 0 17 1 2 25 -16 24 -16 25 6 27 40 3
53 5 69 12 10 4 23 6 30 5 8 -2 28 0 44 4 17 4 50 9 75 11 49 5 105 23 80 27
-8 1 -42 3 -74 3 -38 1 -61 6 -63 14 -3 7 6 12 24 13 28 1 28 1 3 8 -15 5 -24
14 -24 25 1 9 -2 16 -8 14 -5 -2 -8 -7 -6 -11 4 -9 -73 -48 -84 -41 -5 3 -7 0
-6 -7 2 -6 -2 -13 -9 -16 -15 -5 -11 20 7 42 13 15 12 17 -10 13 -14 -2 -34 5
-45 15 -20 18 -20 19 7 42 25 22 27 37 4 34 -6 -1 -37 -6 -68 -12z m-448 -117
c0 -5 -4 -10 -10 -10 -5 0 -10 5 -10 10 0 6 5 10 10 10 6 0 10 -4 10 -10z
m-60 -84 c0 -13 -13 -36 -21 -36 -4 0 -6 7 -2 17 5 14 1 15 -25 10 -19 -4 -32
-2 -32 3 0 6 18 10 40 10 22 0 40 -2 40 -4z m-120 -32 c0 -8 -5 -12 -10 -9 -6
4 -8 11 -5 16 9 14 15 11 15 -7z m65 -4 c3 -6 -1 -7 -9 -4 -18 7 -21 14 -7 14
6 0 13 -4 16 -10z"/>
<path d="M4035 490 c3 -5 8 -10 11 -10 2 0 4 5 4 10 0 6 -5 10 -11 10 -5 0 -7
-4 -4 -10z"/>
<path d="M287 469 c4 -13 8 -18 11 -10 2 7 -1 18 -6 23 -8 8 -9 4 -5 -13z"/>
<path d="M3761 469 c-24 -5 -46 -11 -49 -13 -9 -9 103 6 113 15 11 11 -3 10
-64 -2z"/>
<path d="M4100 450 c-9 -6 -10 -10 -3 -10 6 0 15 5 18 10 8 12 4 12 -15 0z"/>
<path d="M521 408 c-36 -36 -50 -58 -37 -58 10 0 92 91 86 95 -5 3 -27 -14
-49 -37z"/>
<path d="M3570 415 c-10 -12 -10 -18 1 -31 12 -14 14 -14 26 3 12 15 15 16 23
3 5 -8 10 -10 10 -4 0 11 -32 44 -42 44 -3 0 -11 -7 -18 -15z"/>
<path d="M760 400 c0 -5 5 -10 11 -10 5 0 7 5 4 10 -3 6 -8 10 -11 10 -2 0 -4
-4 -4 -10z"/>
<path d="M3149 363 c-13 -16 -12 -17 4 -4 9 7 17 15 17 17 0 8 -8 3 -21 -13z"/>
<path d="M247 349 c7 -7 15 -10 18 -7 3 3 -2 9 -12 12 -14 6 -15 5 -6 -5z"/>
<path d="M440 335 c-7 -8 -16 -13 -20 -10 -9 6 -53 -45 -45 -53 3 -4 10 0 15
8 5 8 13 15 18 15 4 0 20 12 35 28 16 15 24 27 19 27 -5 0 -15 -7 -22 -15z"/>
<path d="M2950 328 c-14 -6 -20 -12 -13 -15 6 -2 24 3 40 11 32 17 11 20 -27
4z"/>
<path d="M3036 325 c-11 -8 -15 -15 -10 -15 6 0 19 7 30 15 10 8 15 14 9 14
-5 0 -19 -6 -29 -14z"/>
<path d="M230 321 c0 -6 5 -13 10 -16 6 -3 10 -18 10 -32 0 -15 3 -23 7 -19
12 11 13 45 3 51 -6 4 -8 11 -5 16 4 5 -1 9 -9 9 -9 0 -16 -4 -16 -9z"/>
<path d="M3156 307 c3 -10 9 -15 12 -12 3 3 0 11 -7 18 -10 9 -11 8 -5 -6z"/>
<path d="M1064 293 c3 -7 -1 -13 -10 -13 -8 0 -12 5 -9 10 3 6 2 10 -2 10 -14
0 -34 -38 -23 -45 6 -3 15 -3 20 0 6 3 10 1 10 -5 0 -6 4 -9 8 -6 5 3 23 -4
41 -15 18 -11 30 -15 26 -9 -3 5 -2 10 2 10 11 0 10 56 -1 67 -14 14 -67 11
-62 -4z"/>
<path d="M4498 293 c7 -3 16 -2 19 1 4 3 -2 6 -13 5 -11 0 -14 -3 -6 -6z"/>
<path d="M2830 269 c0 -5 7 -9 15 -9 25 0 17 -15 -25 -46 -22 -16 -40 -31 -40
-34 0 -4 16 -4 36 -2 26 3 32 7 23 13 -11 8 -8 15 15 33 20 16 26 28 20 37
-10 16 -44 22 -44 8z"/>
<path d="M2675 260 c-3 -6 1 -7 9 -4 18 7 21 14 7 14 -6 0 -13 -4 -16 -10z"/>
<path d="M405 250 c-3 -5 -1 -10 4 -10 6 0 11 5 11 10 0 6 -2 10 -4 10 -3 0
-8 -4 -11 -10z"/>
<path d="M2745 250 c-4 -6 1 -7 11 -3 13 5 15 3 9 -7 -5 -9 -4 -11 3 -6 7 4
12 11 12 17 0 12 -27 12 -35 -1z"/>
<path d="M3150 253 c0 -6 5 -15 10 -18 6 -4 8 -10 5 -15 -3 -4 3 -11 12 -14
10 -4 14 -4 11 0 -4 4 -2 16 4 28 10 19 9 19 -5 8 -13 -11 -17 -10 -26 5 -6
10 -11 13 -11 6z"/>
<path d="M4151 229 c-19 -7 -22 -12 -13 -21 9 -9 17 -7 34 10 24 23 18 27 -21
11z"/>
<path d="M662 190 c0 -14 2 -19 5 -12 2 6 2 18 0 25 -3 6 -5 1 -5 -13z"/>
<path d="M720 180 c0 -5 7 -7 15 -4 8 4 15 8 15 10 0 2 -7 4 -15 4 -8 0 -15
-4 -15 -10z"/>
<path d="M4028 183 c6 -2 18 -2 25 0 6 3 1 5 -13 5 -14 0 -19 -2 -12 -5z"/>
<path d="M3150 160 c-13 -8 -12 -10 3 -10 9 0 17 5 17 10 0 12 -1 12 -20 0z"/>
<path d="M2595 150 c-27 -7 -27 -8 -5 -8 14 0 36 4 50 8 20 6 21 8 5 8 -11 0
-33 -4 -50 -8z"/>
<path d="M2275 130 c26 -11 55 -12 55 -2 0 4 -17 8 -38 9 -28 1 -32 -1 -17 -7z"/>
<path d="M2359 127 c4 -4 23 -4 42 1 l34 10 -42 -1 c-24 -1 -39 -5 -34 -10z"/>
<path d="M4919 113 c-13 -17 -13 -17 6 -3 11 8 22 16 24 17 2 2 0 3 -6 3 -6 0
-17 -8 -24 -17z"/>
<path d="M3950 101 c0 -5 5 -13 10 -16 6 -3 10 -2 10 4 0 5 -4 13 -10 16 -5 3
-10 2 -10 -4z"/>
<path d="M3122 62 c6 -7 14 -9 17 -5 4 4 10 11 14 14 5 4 -3 6 -16 5 -20 -1
-23 -4 -15 -14z"/>
<path d="M1270 40 l-35 -7 32 -2 c17 0 39 -4 47 -7 12 -5 15 -2 10 10 -3 9 -9
15 -13 15 -3 -1 -22 -5 -41 -9z"/>
<path d="M1342 37 c6 -8 22 -11 35 -9 29 5 27 7 -15 15 -26 5 -30 4 -20 -6z"/>
<path d="M1730 38 c0 -6 3 -8 7 -5 3 4 12 2 20 -4 10 -9 13 -8 13 5 0 9 -8 16
-20 16 -11 0 -20 -5 -20 -12z"/>
<path d="M3158 23 c7 -3 16 -2 19 1 4 3 -2 6 -13 5 -11 0 -14 -3 -6 -6z"/>
<path d="M1848 13 c18 -2 45 -2 60 0 15 2 0 4 -33 4 -33 0 -45 -2 -27 -4z"/>
</g>
</svg>
